<?xml version="1.0" encoding="utf-8" standalone="no"?>
<!DOCTYPE svg PUBLIC "-//W3C//DTD SVG 1.1//EN"
  "http://www.w3.org/Graphics/SVG/1.1/DTD/svg11.dtd">
<svg xmlns:xlink="http://www.w3.org/1999/xlink" width="748.8pt" height="398.544944pt" viewBox="0 0 748.8 398.544944" xmlns="http://www.w3.org/2000/svg" version="1.1">
 <metadata>
  <rdf:RDF xmlns:dc="http://purl.org/dc/elements/1.1/" xmlns:cc="http://creativecommons.org/ns#" xmlns:rdf="http://www.w3.org/1999/02/22-rdf-syntax-ns#">
   <cc:Work>
    <dc:type rdf:resource="http://purl.org/dc/dcmitype/StillImage"/>
    <dc:date>2026-09-04T21:44:52.590022</dc:date>
    <dc:format>image/svg+xml</dc:format>
    <dc:creator>
     <cc:Agent>
      <dc:title>Matplotlib v3.11.1, https://matplotlib.org/</dc:title>
     </cc:Agent>
    </dc:creator>
   </cc:Work>
  </rdf:RDF>
 </metadata>
 <defs>
  <style type="text/css">*{stroke-linejoin: round; stroke-linecap: butt}</style>
 </defs>
 <g id="figure_1">
  <g id="patch_1">
   <path d="M 0 398.544944 
L 748.8 398.544944 
L 748.8 0 
L 0 0 
z
" style="fill: #ffffff"/>
  </g>
  <g id="axes_1">
   <g id="LineCollection_1">
    <path d="M 40.581818 23.375455 
L 708.218182 23.375455 
" clip-path="url(#p53cc0f7dad)" style="fill: none; stroke: #000000; stroke-width: 0.85"/>
   </g>
   <g id="LineCollection_2">
    <path d="M 40.581818 49.773214 
L 708.218182 49.773214 
" clip-path="url(#p53cc0f7dad)" style="fill: none; stroke: #000000; stroke-width: 0.45"/>
   </g>
   <g id="LineCollection_3">
    <path d="M 40.581818 346.884545 
L 708.218182 346.884545 
" clip-path="url(#p53cc0f7dad)" style="fill: none; stroke: #000000; stroke-width: 0.85"/>
   </g>
   <g id="text_1">
    <!-- Question group -->
    <g transform="translate(45.45 38.4966) scale(0.074 -0.074)">
     <defs>
      <path id="DejaVuSerif-34" d="M 2700 -91 
Q 1628 -91 993 567 
Q 359 1225 359 2328 
Q 359 2894 529 3339 
Q 700 3784 1050 4134 
Q 1356 4441 1750 4595 
Q 2144 4750 2625 4750 
Q 3641 4750 4266 4084 
Q 4891 3419 4891 2328 
Q 4891 1403 4422 773 
Q 3953 144 3128 -38 
Q 3297 -247 3539 -347 
Q 3781 -447 4122 -447 
L 4219 -447 
L 4219 -1025 
Q 3691 -1000 3314 -767 
Q 2938 -534 2700 -91 
z
M 2625 244 
Q 3391 244 3781 770 
Q 4172 1297 4172 2328 
Q 4172 3363 3781 3889 
Q 3391 4416 2625 4416 
Q 1856 4416 1465 3889 
Q 1075 3363 1075 2328 
Q 1075 1297 1465 770 
Q 1856 244 2625 244 
z
" transform="scale(0.015625)"/>
      <path id="DejaVuSerif-58" d="M 2266 3322 
L 3341 3322 
L 3341 331 
L 3884 331 
L 3884 0 
L 2766 0 
L 2766 588 
Q 2606 256 2353 82 
Q 2100 -91 1766 -91 
Q 1213 -91 952 223 
Q 691 538 691 1209 
L 691 2988 
L 172 2988 
L 172 3322 
L 1269 3322 
L 1269 1388 
Q 1269 781 1417 556 
Q 1566 331 1947 331 
Q 2347 331 2556 625 
Q 2766 919 2766 1478 
L 2766 2988 
L 2266 2988 
L 2266 3322 
z
" transform="scale(0.015625)"/>
      <path id="DejaVuSerif-48" d="M 3469 1600 
L 991 1600 
L 991 1575 
Q 991 903 1244 561 
Q 1497 219 1991 219 
Q 2369 219 2611 417 
Q 2853 616 2950 1006 
L 3413 1006 
Q 3275 459 2904 184 
Q 2534 -91 1931 -91 
Q 1203 -91 761 389 
Q 319 869 319 1663 
Q 319 2450 753 2931 
Q 1188 3413 1894 3413 
Q 2647 3413 3050 2948 
Q 3453 2484 3469 1600 
z
M 2791 1931 
Q 2772 2513 2545 2808 
Q 2319 3103 1894 3103 
Q 1497 3103 1269 2806 
Q 1041 2509 991 1931 
L 2791 1931 
z
" transform="scale(0.015625)"/>
      <path id="DejaVuSerif-56" d="M 359 184 
L 359 959 
L 691 959 
Q 703 588 923 403 
Q 1144 219 1575 219 
Q 1963 219 2166 364 
Q 2369 509 2369 788 
Q 2369 1006 2220 1140 
Q 2072 1275 1594 1428 
L 1178 1569 
Q 750 1706 558 1912 
Q 366 2119 366 2438 
Q 366 2894 700 3153 
Q 1034 3413 1625 3413 
Q 1888 3413 2178 3344 
Q 2469 3275 2778 3144 
L 2778 2419 
L 2447 2419 
Q 2434 2741 2221 2922 
Q 2009 3103 1644 3103 
Q 1281 3103 1095 2975 
Q 909 2847 909 2591 
Q 909 2381 1050 2254 
Q 1191 2128 1613 1997 
L 2069 1856 
Q 2541 1709 2748 1489 
Q 2956 1269 2956 922 
Q 2956 450 2595 179 
Q 2234 -91 1600 -91 
Q 1278 -91 972 -22 
Q 666 47 359 184 
z
" transform="scale(0.015625)"/>
      <path id="DejaVuSerif-57" d="M 691 2988 
L 184 2988 
L 184 3322 
L 691 3322 
L 691 4353 
L 1269 4353 
L 1269 3322 
L 2350 3322 
L 2350 2988 
L 1269 2988 
L 1269 878 
Q 1269 456 1350 337 
Q 1431 219 1650 219 
Q 1875 219 1978 351 
Q 2081 484 2088 781 
L 2522 781 
Q 2497 328 2275 118 
Q 2053 -91 1600 -91 
Q 1103 -91 897 129 
Q 691 350 691 878 
L 691 2988 
z
" transform="scale(0.015625)"/>
      <path id="DejaVuSerif-4c" d="M 622 4353 
Q 622 4497 726 4603 
Q 831 4709 978 4709 
Q 1122 4709 1226 4603 
Q 1331 4497 1331 4353 
Q 1331 4206 1228 4103 
Q 1125 4000 978 4000 
Q 831 4000 726 4103 
Q 622 4206 622 4353 
z
M 1356 331 
L 1900 331 
L 1900 0 
L 231 0 
L 231 331 
L 781 331 
L 781 2988 
L 231 2988 
L 231 3322 
L 1356 3322 
L 1356 331 
z
" transform="scale(0.015625)"/>
      <path id="DejaVuSerif-52" d="M 1925 219 
Q 2388 219 2623 584 
Q 2859 950 2859 1663 
Q 2859 2375 2623 2739 
Q 2388 3103 1925 3103 
Q 1463 3103 1227 2739 
Q 991 2375 991 1663 
Q 991 950 1228 584 
Q 1466 219 1925 219 
z
M 1925 -91 
Q 1200 -91 759 389 
Q 319 869 319 1663 
Q 319 2456 758 2934 
Q 1197 3413 1925 3413 
Q 2653 3413 3092 2934 
Q 3531 2456 3531 1663 
Q 3531 869 3092 389 
Q 2653 -91 1925 -91 
z
" transform="scale(0.015625)"/>
      <path id="DejaVuSerif-51" d="M 263 0 
L 263 331 
L 781 331 
L 781 2988 
L 231 2988 
L 231 3322 
L 1356 3322 
L 1356 2731 
Q 1516 3069 1770 3241 
Q 2025 3413 2363 3413 
Q 2913 3413 3172 3097 
Q 3431 2781 3431 2113 
L 3431 331 
L 3944 331 
L 3944 0 
L 2356 0 
L 2356 331 
L 2853 331 
L 2853 1931 
Q 2853 2541 2703 2767 
Q 2553 2994 2175 2994 
Q 1775 2994 1565 2701 
Q 1356 2409 1356 1850 
L 1356 331 
L 1856 331 
L 1856 0 
L 263 0 
z
" transform="scale(0.015625)"/>
      <path id="DejaVuSerif-3" transform="scale(0.015625)"/>
      <path id="DejaVuSerif-4a" d="M 3359 2988 
L 3359 72 
Q 3359 -644 2965 -1033 
Q 2572 -1422 1844 -1422 
Q 1516 -1422 1216 -1362 
Q 916 -1303 641 -1184 
L 641 -488 
L 941 -488 
Q 997 -813 1206 -963 
Q 1416 -1113 1806 -1113 
Q 2313 -1113 2548 -827 
Q 2784 -541 2784 72 
L 2784 519 
Q 2616 206 2355 57 
Q 2094 -91 1709 -91 
Q 1097 -91 708 395 
Q 319 881 319 1663 
Q 319 2444 706 2928 
Q 1094 3413 1709 3413 
Q 2094 3413 2355 3264 
Q 2616 3116 2784 2803 
L 2784 3322 
L 3909 3322 
L 3909 2988 
L 3359 2988 
z
M 2784 1825 
Q 2784 2422 2554 2737 
Q 2325 3053 1888 3053 
Q 1444 3053 1217 2703 
Q 991 2353 991 1663 
Q 991 975 1217 622 
Q 1444 269 1888 269 
Q 2325 269 2554 583 
Q 2784 897 2784 1497 
L 2784 1825 
z
" transform="scale(0.015625)"/>
      <path id="DejaVuSerif-55" d="M 3059 3328 
L 3059 2497 
L 2728 2497 
Q 2713 2744 2591 2866 
Q 2469 2988 2234 2988 
Q 1809 2988 1582 2694 
Q 1356 2400 1356 1850 
L 1356 331 
L 2022 331 
L 2022 0 
L 263 0 
L 263 331 
L 781 331 
L 781 2994 
L 231 2994 
L 231 3322 
L 1356 3322 
L 1356 2731 
Q 1525 3078 1790 3245 
Q 2056 3413 2438 3413 
Q 2578 3413 2733 3391 
Q 2888 3369 3059 3328 
z
" transform="scale(0.015625)"/>
      <path id="DejaVuSerif-53" d="M 1313 1825 
L 1313 1497 
Q 1313 897 1542 583 
Q 1772 269 2209 269 
Q 2650 269 2876 622 
Q 3103 975 3103 1663 
Q 3103 2353 2876 2703 
Q 2650 3053 2209 3053 
Q 1772 3053 1542 2737 
Q 1313 2422 1313 1825 
z
M 738 2988 
L 184 2988 
L 184 3322 
L 1313 3322 
L 1313 2803 
Q 1481 3116 1742 3264 
Q 2003 3413 2388 3413 
Q 3000 3413 3387 2928 
Q 3775 2444 3775 1663 
Q 3775 881 3387 395 
Q 3000 -91 2388 -91 
Q 2003 -91 1742 57 
Q 1481 206 1313 519 
L 1313 -997 
L 1856 -997 
L 1856 -1331 
L 184 -1331 
L 184 -997 
L 738 -997 
L 738 2988 
z
" transform="scale(0.015625)"/>
     </defs>
     <use xlink:href="#DejaVuSerif-34"/>
     <use xlink:href="#DejaVuSerif-58" transform="translate(81.984375 0)"/>
     <use xlink:href="#DejaVuSerif-48" transform="translate(146.390625 0)"/>
     <use xlink:href="#DejaVuSerif-56" transform="translate(205.578125 0)"/>
     <use xlink:href="#DejaVuSerif-57" transform="translate(256.890625 0)"/>
     <use xlink:href="#DejaVuSerif-4c" transform="translate(297.078125 0)"/>
     <use xlink:href="#DejaVuSerif-52" transform="translate(329.0625 0)"/>
     <use xlink:href="#DejaVuSerif-51" transform="translate(389.265625 0)"/>
     <use xlink:href="#DejaVuSerif-3" transform="translate(453.671875 0)"/>
     <use xlink:href="#DejaVuSerif-4a" transform="translate(485.453125 0)"/>
     <use xlink:href="#DejaVuSerif-55" transform="translate(549.46875 0)"/>
     <use xlink:href="#DejaVuSerif-52" transform="translate(597.265625 0)"/>
     <use xlink:href="#DejaVuSerif-58" transform="translate(657.46875 0)"/>
     <use xlink:href="#DejaVuSerif-53" transform="translate(721.875 0)"/>
    </g>
   </g>
   <g id="text_2">
    <!-- Condition -->
    <g transform="translate(277.997809 38.496889) scale(0.074 -0.074)">
     <defs>
      <path id="DejaVuSerif-26" d="M 4513 1234 
Q 4306 581 3820 245 
Q 3334 -91 2591 -91 
Q 2134 -91 1743 65 
Q 1353 222 1050 525 
Q 700 875 529 1320 
Q 359 1766 359 2328 
Q 359 3416 987 4083 
Q 1616 4750 2644 4750 
Q 3025 4750 3456 4650 
Q 3888 4550 4384 4347 
L 4384 3272 
L 4031 3272 
Q 3916 3859 3567 4137 
Q 3219 4416 2591 4416 
Q 1844 4416 1459 3886 
Q 1075 3356 1075 2328 
Q 1075 1303 1459 773 
Q 1844 244 2591 244 
Q 3113 244 3450 492 
Q 3788 741 3938 1234 
L 4513 1234 
z
" transform="scale(0.015625)"/>
      <path id="DejaVuSerif-47" d="M 3359 331 
L 3909 331 
L 3909 0 
L 2784 0 
L 2784 519 
Q 2616 206 2355 57 
Q 2094 -91 1709 -91 
Q 1097 -91 708 395 
Q 319 881 319 1663 
Q 319 2444 706 2928 
Q 1094 3413 1709 3413 
Q 2094 3413 2355 3264 
Q 2616 3116 2784 2803 
L 2784 4531 
L 2241 4531 
L 2241 4863 
L 3359 4863 
L 3359 331 
z
M 2784 1497 
L 2784 1825 
Q 2784 2422 2554 2737 
Q 2325 3053 1888 3053 
Q 1444 3053 1217 2703 
Q 991 2353 991 1663 
Q 991 975 1217 622 
Q 1444 269 1888 269 
Q 2325 269 2554 583 
Q 2784 897 2784 1497 
z
" transform="scale(0.015625)"/>
     </defs>
     <use xlink:href="#DejaVuSerif-26"/>
     <use xlink:href="#DejaVuSerif-52" transform="translate(76.515625 0)"/>
     <use xlink:href="#DejaVuSerif-51" transform="translate(136.71875 0)"/>
     <use xlink:href="#DejaVuSerif-47" transform="translate(201.125 0)"/>
     <use xlink:href="#DejaVuSerif-4c" transform="translate(265.140625 0)"/>
     <use xlink:href="#DejaVuSerif-57" transform="translate(297.125 0)"/>
     <use xlink:href="#DejaVuSerif-4c" transform="translate(337.3125 0)"/>
     <use xlink:href="#DejaVuSerif-52" transform="translate(369.296875 0)"/>
     <use xlink:href="#DejaVuSerif-51" transform="translate(429.5 0)"/>
    </g>
   </g>
   <g id="text_3">
    <!-- Answers -->
    <g transform="translate(396.302437 38.4966) scale(0.074 -0.074)">
     <defs>
      <path id="DejaVuSerif-24" d="M 1281 1691 
L 2994 1691 
L 2138 3909 
L 1281 1691 
z
M -38 0 
L -38 331 
L 372 331 
L 2034 4666 
L 2559 4666 
L 4225 331 
L 4684 331 
L 4684 0 
L 2988 0 
L 2988 331 
L 3506 331 
L 3116 1356 
L 1153 1356 
L 763 331 
L 1275 331 
L 1275 0 
L -38 0 
z
" transform="scale(0.015625)"/>
      <path id="DejaVuSerif-5a" d="M 3072 3322 
L 3922 728 
L 4672 2988 
L 4191 2988 
L 4191 3322 
L 5394 3322 
L 5394 2988 
L 5025 2988 
L 4038 0 
L 3559 0 
L 2741 2484 
L 1919 0 
L 1459 0 
L 475 2988 
L 103 2988 
L 103 3322 
L 1606 3322 
L 1606 2988 
L 1069 2988 
L 1813 728 
L 2669 3322 
L 3072 3322 
z
" transform="scale(0.015625)"/>
     </defs>
     <use xlink:href="#DejaVuSerif-24"/>
     <use xlink:href="#DejaVuSerif-51" transform="translate(72.21875 0)"/>
     <use xlink:href="#DejaVuSerif-56" transform="translate(136.625 0)"/>
     <use xlink:href="#DejaVuSerif-5a" transform="translate(187.9375 0)"/>
     <use xlink:href="#DejaVuSerif-48" transform="translate(273.53125 0)"/>
     <use xlink:href="#DejaVuSerif-55" transform="translate(332.71875 0)"/>
     <use xlink:href="#DejaVuSerif-56" transform="translate(380.515625 0)"/>
    </g>
   </g>
   <g id="text_4">
    <!-- Intrusions -->
    <g transform="translate(459.496135 38.4966) scale(0.074 -0.074)">
     <defs>
      <path id="DejaVuSerif-2c" d="M 1581 331 
L 2175 331 
L 2175 0 
L 353 0 
L 353 331 
L 947 331 
L 947 4331 
L 353 4331 
L 353 4666 
L 2175 4666 
L 2175 4331 
L 1581 4331 
L 1581 331 
z
" transform="scale(0.015625)"/>
     </defs>
     <use xlink:href="#DejaVuSerif-2c"/>
     <use xlink:href="#DejaVuSerif-51" transform="translate(39.5 0)"/>
     <use xlink:href="#DejaVuSerif-57" transform="translate(103.90625 0)"/>
     <use xlink:href="#DejaVuSerif-55" transform="translate(144.09375 0)"/>
     <use xlink:href="#DejaVuSerif-58" transform="translate(191.890625 0)"/>
     <use xlink:href="#DejaVuSerif-56" transform="translate(256.296875 0)"/>
     <use xlink:href="#DejaVuSerif-4c" transform="translate(307.609375 0)"/>
     <use xlink:href="#DejaVuSerif-52" transform="translate(339.59375 0)"/>
     <use xlink:href="#DejaVuSerif-51" transform="translate(399.796875 0)"/>
     <use xlink:href="#DejaVuSerif-56" transform="translate(464.203125 0)"/>
    </g>
   </g>
   <g id="text_5">
    <!-- Correct -->
    <g transform="translate(530.515911 38.4966) scale(0.074 -0.074)">
     <defs>
      <path id="DejaVuSerif-46" d="M 3291 997 
Q 3169 466 2822 187 
Q 2475 -91 1925 -91 
Q 1200 -91 759 389 
Q 319 869 319 1663 
Q 319 2459 759 2936 
Q 1200 3413 1925 3413 
Q 2241 3413 2553 3339 
Q 2866 3266 3181 3116 
L 3181 2266 
L 2847 2266 
Q 2781 2703 2561 2903 
Q 2341 3103 1931 3103 
Q 1466 3103 1228 2742 
Q 991 2381 991 1663 
Q 991 944 1227 581 
Q 1463 219 1931 219 
Q 2303 219 2525 412 
Q 2747 606 2828 997 
L 3291 997 
z
" transform="scale(0.015625)"/>
     </defs>
     <use xlink:href="#DejaVuSerif-26"/>
     <use xlink:href="#DejaVuSerif-52" transform="translate(76.515625 0)"/>
     <use xlink:href="#DejaVuSerif-55" transform="translate(136.71875 0)"/>
     <use xlink:href="#DejaVuSerif-55" transform="translate(184.515625 0)"/>
     <use xlink:href="#DejaVuSerif-48" transform="translate(232.3125 0)"/>
     <use xlink:href="#DejaVuSerif-46" transform="translate(291.5 0)"/>
     <use xlink:href="#DejaVuSerif-57" transform="translate(347.5 0)"/>
    </g>
   </g>
   <g id="text_6">
    <!-- Useful -->
    <g transform="translate(594.272536 38.496889) scale(0.074 -0.074)">
     <defs>
      <path id="DejaVuSerif-38" d="M 897 4331 
L 300 4331 
L 300 4666 
L 2125 4666 
L 2125 4331 
L 1528 4331 
L 1528 1919 
Q 1528 1025 1820 672 
Q 2113 319 2828 319 
Q 3544 319 3836 672 
Q 4128 1025 4128 1919 
L 4128 4331 
L 3531 4331 
L 3531 4666 
L 5106 4666 
L 5106 4331 
L 4513 4331 
L 4513 1856 
Q 4513 791 4103 350 
Q 3694 -91 2713 -91 
Q 1731 -91 1314 353 
Q 897 797 897 1856 
L 897 4331 
z
" transform="scale(0.015625)"/>
      <path id="DejaVuSerif-49" d="M 2753 4078 
L 2450 4078 
Q 2447 4313 2317 4434 
Q 2188 4556 1941 4556 
Q 1619 4556 1487 4379 
Q 1356 4203 1356 3750 
L 1356 3322 
L 2284 3322 
L 2284 2988 
L 1356 2988 
L 1356 331 
L 2094 331 
L 2094 0 
L 231 0 
L 231 331 
L 781 331 
L 781 2988 
L 231 2988 
L 231 3322 
L 781 3322 
L 781 3738 
Q 781 4294 1070 4578 
Q 1359 4863 1919 4863 
Q 2128 4863 2337 4825 
Q 2547 4788 2753 4709 
L 2753 4078 
z
" transform="scale(0.015625)"/>
      <path id="DejaVuSerif-4f" d="M 1313 331 
L 1856 331 
L 1856 0 
L 184 0 
L 184 331 
L 738 331 
L 738 4531 
L 184 4531 
L 184 4863 
L 1313 4863 
L 1313 331 
z
" transform="scale(0.015625)"/>
     </defs>
     <use xlink:href="#DejaVuSerif-38"/>
     <use xlink:href="#DejaVuSerif-56" transform="translate(84.28125 0)"/>
     <use xlink:href="#DejaVuSerif-48" transform="translate(135.59375 0)"/>
     <use xlink:href="#DejaVuSerif-49" transform="translate(194.78125 0)"/>
     <use xlink:href="#DejaVuSerif-58" transform="translate(231.796875 0)"/>
     <use xlink:href="#DejaVuSerif-4f" transform="translate(296.203125 0)"/>
    </g>
   </g>
   <g id="text_7">
    <!-- Readable -->
    <g transform="translate(655.206922 38.496889) scale(0.074 -0.074)">
     <defs>
      <path id="DejaVuSerif-35" d="M 3066 2316 
Q 3284 2256 3442 2114 
Q 3600 1972 3725 1716 
L 4403 331 
L 4972 331 
L 4972 0 
L 3872 0 
L 3144 1484 
Q 2934 1916 2759 2042 
Q 2584 2169 2278 2169 
L 1581 2169 
L 1581 331 
L 2241 331 
L 2241 0 
L 353 0 
L 353 331 
L 947 331 
L 947 4331 
L 353 4331 
L 353 4666 
L 2719 4666 
Q 3400 4666 3770 4341 
Q 4141 4016 4141 3419 
Q 4141 2938 3870 2661 
Q 3600 2384 3066 2316 
z
M 1581 2503 
L 2503 2503 
Q 2975 2503 3200 2726 
Q 3425 2950 3425 3419 
Q 3425 3888 3200 4109 
Q 2975 4331 2503 4331 
L 1581 4331 
L 1581 2503 
z
" transform="scale(0.015625)"/>
      <path id="DejaVuSerif-44" d="M 2547 1044 
L 2547 1747 
L 1806 1747 
Q 1378 1747 1168 1562 
Q 959 1378 959 997 
Q 959 650 1171 447 
Q 1384 244 1747 244 
Q 2106 244 2326 466 
Q 2547 688 2547 1044 
z
M 3122 2075 
L 3122 331 
L 3634 331 
L 3634 0 
L 2547 0 
L 2547 359 
Q 2356 128 2106 18 
Q 1856 -91 1522 -91 
Q 969 -91 644 203 
Q 319 497 319 997 
Q 319 1513 691 1797 
Q 1063 2081 1741 2081 
L 2547 2081 
L 2547 2309 
Q 2547 2688 2317 2895 
Q 2088 3103 1672 3103 
Q 1328 3103 1125 2947 
Q 922 2791 872 2484 
L 575 2484 
L 575 3156 
Q 875 3284 1158 3348 
Q 1441 3413 1709 3413 
Q 2400 3413 2761 3070 
Q 3122 2728 3122 2075 
z
" transform="scale(0.015625)"/>
      <path id="DejaVuSerif-45" d="M 738 331 
L 738 4531 
L 184 4531 
L 184 4863 
L 1313 4863 
L 1313 2803 
Q 1481 3116 1742 3264 
Q 2003 3413 2388 3413 
Q 3000 3413 3387 2928 
Q 3775 2444 3775 1663 
Q 3775 881 3387 395 
Q 3000 -91 2388 -91 
Q 2003 -91 1742 57 
Q 1481 206 1313 519 
L 1313 0 
L 184 0 
L 184 331 
L 738 331 
z
M 1313 1497 
Q 1313 897 1542 583 
Q 1772 269 2209 269 
Q 2650 269 2876 622 
Q 3103 975 3103 1663 
Q 3103 2353 2876 2703 
Q 2650 3053 2209 3053 
Q 1772 3053 1542 2737 
Q 1313 2422 1313 1825 
L 1313 1497 
z
" transform="scale(0.015625)"/>
     </defs>
     <use xlink:href="#DejaVuSerif-35"/>
     <use xlink:href="#DejaVuSerif-48" transform="translate(75.296875 0)"/>
     <use xlink:href="#DejaVuSerif-44" transform="translate(134.484375 0)"/>
     <use xlink:href="#DejaVuSerif-47" transform="translate(194.109375 0)"/>
     <use xlink:href="#DejaVuSerif-44" transform="translate(258.125 0)"/>
     <use xlink:href="#DejaVuSerif-45" transform="translate(317.75 0)"/>
     <use xlink:href="#DejaVuSerif-4f" transform="translate(381.765625 0)"/>
     <use xlink:href="#DejaVuSerif-48" transform="translate(413.75 0)"/>
    </g>
   </g>
   <g id="text_8">
    <!-- Unrelated -->
    <g transform="translate(45.45 64.911665) scale(0.074 -0.074)">
     <use xlink:href="#DejaVuSerif-38"/>
     <use xlink:href="#DejaVuSerif-51" transform="translate(84.28125 0)"/>
     <use xlink:href="#DejaVuSerif-55" transform="translate(148.6875 0)"/>
     <use xlink:href="#DejaVuSerif-48" transform="translate(196.484375 0)"/>
     <use xlink:href="#DejaVuSerif-4f" transform="translate(255.671875 0)"/>
     <use xlink:href="#DejaVuSerif-44" transform="translate(287.65625 0)"/>
     <use xlink:href="#DejaVuSerif-57" transform="translate(347.28125 0)"/>
     <use xlink:href="#DejaVuSerif-48" transform="translate(387.46875 0)"/>
     <use xlink:href="#DejaVuSerif-47" transform="translate(446.65625 0)"/>
    </g>
   </g>
   <g id="text_9">
    <!-- Full rewrite -->
    <g transform="translate(215.910348 64.911665) scale(0.074 -0.074)">
     <defs>
      <path id="DejaVuSerif-29" d="M 353 0 
L 353 331 
L 947 331 
L 947 4331 
L 353 4331 
L 353 4666 
L 4172 4666 
L 4172 3628 
L 3788 3628 
L 3788 4281 
L 1581 4281 
L 1581 2719 
L 3175 2719 
L 3175 3303 
L 3559 3303 
L 3559 1753 
L 3175 1753 
L 3175 2338 
L 1581 2338 
L 1581 331 
L 2328 331 
L 2328 0 
L 353 0 
z
" transform="scale(0.015625)"/>
     </defs>
     <use xlink:href="#DejaVuSerif-29"/>
     <use xlink:href="#DejaVuSerif-58" transform="translate(69.390625 0)"/>
     <use xlink:href="#DejaVuSerif-4f" transform="translate(133.796875 0)"/>
     <use xlink:href="#DejaVuSerif-4f" transform="translate(165.78125 0)"/>
     <use xlink:href="#DejaVuSerif-3" transform="translate(197.765625 0)"/>
     <use xlink:href="#DejaVuSerif-55" transform="translate(229.546875 0)"/>
     <use xlink:href="#DejaVuSerif-48" transform="translate(277.34375 0)"/>
     <use xlink:href="#DejaVuSerif-5a" transform="translate(336.53125 0)"/>
     <use xlink:href="#DejaVuSerif-55" transform="translate(422.125 0)"/>
     <use xlink:href="#DejaVuSerif-4c" transform="translate(469.921875 0)"/>
     <use xlink:href="#DejaVuSerif-57" transform="translate(501.90625 0)"/>
     <use xlink:href="#DejaVuSerif-48" transform="translate(542.09375 0)"/>
    </g>
   </g>
   <g id="text_10">
    <!-- 10 -->
    <g transform="translate(428.772958 64.846337) scale(0.074 -0.074)">
     <defs>
      <path id="DejaVuSerif-14" d="M 909 0 
L 909 331 
L 1722 331 
L 1722 4213 
L 781 3603 
L 781 4013 
L 1919 4750 
L 2350 4750 
L 2350 331 
L 3163 331 
L 3163 0 
L 909 0 
z
" transform="scale(0.015625)"/>
      <path id="DejaVuSerif-13" d="M 2034 219 
Q 2513 219 2750 744 
Q 2988 1269 2988 2328 
Q 2988 3391 2750 3916 
Q 2513 4441 2034 4441 
Q 1556 4441 1318 3916 
Q 1081 3391 1081 2328 
Q 1081 1269 1318 744 
Q 1556 219 2034 219 
z
M 2034 -91 
Q 1275 -91 848 546 
Q 422 1184 422 2328 
Q 422 3475 848 4112 
Q 1275 4750 2034 4750 
Q 2797 4750 3222 4112 
Q 3647 3475 3647 2328 
Q 3647 1184 3222 546 
Q 2797 -91 2034 -91 
z
" transform="scale(0.015625)"/>
     </defs>
     <use xlink:href="#DejaVuSerif-14"/>
     <use xlink:href="#DejaVuSerif-13" transform="translate(63.625 0)"/>
    </g>
   </g>
   <g id="text_11">
    <!-- 5 -->
    <g transform="translate(504.506353 64.797774) scale(0.074 -0.074)">
     <defs>
      <path id="DejaVuSerif-18" d="M 3219 4666 
L 3219 4153 
L 1081 4153 
L 1081 2816 
Q 1244 2928 1461 2984 
Q 1678 3041 1947 3041 
Q 2703 3041 3140 2622 
Q 3578 2203 3578 1478 
Q 3578 738 3136 323 
Q 2694 -91 1894 -91 
Q 1572 -91 1234 -12 
Q 897 66 544 225 
L 544 1131 
L 897 1131 
Q 925 688 1179 453 
Q 1434 219 1894 219 
Q 2388 219 2653 544 
Q 2919 869 2919 1478 
Q 2919 2084 2655 2407 
Q 2391 2731 1894 2731 
Q 1613 2731 1398 2631 
Q 1184 2531 1019 2322 
L 750 2322 
L 750 4666 
L 3219 4666 
z
" transform="scale(0.015625)"/>
     </defs>
     <use xlink:href="#DejaVuSerif-18"/>
    </g>
   </g>
   <g id="text_12">
    <!-- 8 -->
    <g transform="translate(566.061479 64.846337) scale(0.074 -0.074)">
     <defs>
      <path id="DejaVuSerif-1b" d="M 2981 1275 
Q 2981 1775 2732 2051 
Q 2484 2328 2034 2328 
Q 1584 2328 1336 2051 
Q 1088 1775 1088 1275 
Q 1088 772 1336 495 
Q 1584 219 2034 219 
Q 2484 219 2732 495 
Q 2981 772 2981 1275 
z
M 2853 3541 
Q 2853 3966 2637 4203 
Q 2422 4441 2034 4441 
Q 1650 4441 1433 4203 
Q 1216 3966 1216 3541 
Q 1216 3113 1433 2875 
Q 1650 2638 2034 2638 
Q 2422 2638 2637 2875 
Q 2853 3113 2853 3541 
z
M 2516 2484 
Q 3047 2413 3344 2092 
Q 3641 1772 3641 1275 
Q 3641 619 3225 264 
Q 2809 -91 2034 -91 
Q 1263 -91 845 264 
Q 428 619 428 1275 
Q 428 1772 725 2092 
Q 1022 2413 1556 2484 
Q 1084 2569 832 2842 
Q 581 3116 581 3541 
Q 581 4103 968 4426 
Q 1356 4750 2034 4750 
Q 2713 4750 3100 4426 
Q 3488 4103 3488 3541 
Q 3488 3116 3236 2842 
Q 2984 2569 2516 2484 
z
" transform="scale(0.015625)"/>
     </defs>
     <use xlink:href="#DejaVuSerif-1b"/>
    </g>
   </g>
   <g id="text_13">
    <!-- 0 -->
    <g transform="translate(627.616605 64.846337) scale(0.074 -0.074)">
     <use xlink:href="#DejaVuSerif-13"/>
    </g>
   </g>
   <g id="text_14">
    <!-- 10 -->
    <g transform="translate(693.9335 64.846337) scale(0.074 -0.074)">
     <use xlink:href="#DejaVuSerif-14"/>
     <use xlink:href="#DejaVuSerif-13" transform="translate(63.625 0)"/>
    </g>
   </g>
   <g id="text_15">
    <!-- Unrelated -->
    <g transform="translate(45.45 89.670943) scale(0.074 -0.074)">
     <use xlink:href="#DejaVuSerif-38"/>
     <use xlink:href="#DejaVuSerif-51" transform="translate(84.28125 0)"/>
     <use xlink:href="#DejaVuSerif-55" transform="translate(148.6875 0)"/>
     <use xlink:href="#DejaVuSerif-48" transform="translate(196.484375 0)"/>
     <use xlink:href="#DejaVuSerif-4f" transform="translate(255.671875 0)"/>
     <use xlink:href="#DejaVuSerif-44" transform="translate(287.65625 0)"/>
     <use xlink:href="#DejaVuSerif-57" transform="translate(347.28125 0)"/>
     <use xlink:href="#DejaVuSerif-48" transform="translate(387.46875 0)"/>
     <use xlink:href="#DejaVuSerif-47" transform="translate(446.65625 0)"/>
    </g>
   </g>
   <g id="text_16">
    <!-- MLP 4–7 removed -->
    <g transform="translate(215.910348 89.670943) scale(0.074 -0.074)">
     <defs>
      <path id="DejaVuSerif-30" d="M 353 0 
L 353 331 
L 947 331 
L 947 4331 
L 319 4331 
L 319 4666 
L 1678 4666 
L 3316 1344 
L 4953 4666 
L 6228 4666 
L 6228 4331 
L 5606 4331 
L 5606 331 
L 6203 331 
L 6203 0 
L 4378 0 
L 4378 331 
L 4972 331 
L 4972 3938 
L 3372 684 
L 2931 684 
L 1331 3938 
L 1331 331 
L 1925 331 
L 1925 0 
L 353 0 
z
" transform="scale(0.015625)"/>
      <path id="DejaVuSerif-2f" d="M 353 0 
L 353 331 
L 947 331 
L 947 4331 
L 353 4331 
L 353 4666 
L 2175 4666 
L 2175 4331 
L 1581 4331 
L 1581 384 
L 3713 384 
L 3713 1166 
L 4097 1166 
L 4097 0 
L 353 0 
z
" transform="scale(0.015625)"/>
      <path id="DejaVuSerif-33" d="M 1581 2375 
L 2406 2375 
Q 2872 2375 3115 2626 
Q 3359 2878 3359 3353 
Q 3359 3831 3115 4081 
Q 2872 4331 2406 4331 
L 1581 4331 
L 1581 2375 
z
M 353 0 
L 353 331 
L 947 331 
L 947 4331 
L 353 4331 
L 353 4666 
L 2559 4666 
Q 3259 4666 3668 4311 
Q 4078 3956 4078 3353 
Q 4078 2753 3668 2397 
Q 3259 2041 2559 2041 
L 1581 2041 
L 1581 331 
L 2303 331 
L 2303 0 
L 353 0 
z
" transform="scale(0.015625)"/>
      <path id="DejaVuSerif-17" d="M 2234 1581 
L 2234 4063 
L 641 1581 
L 2234 1581 
z
M 3609 0 
L 1484 0 
L 1484 331 
L 2234 331 
L 2234 1247 
L 197 1247 
L 197 1588 
L 2241 4750 
L 2859 4750 
L 2859 1581 
L 3750 1581 
L 3750 1247 
L 2859 1247 
L 2859 331 
L 3609 331 
L 3609 0 
z
" transform="scale(0.015625)"/>
      <path id="DejaVuSerif-781" d="M 281 1906 
L 2919 1906 
L 2919 1491 
L 281 1491 
L 281 1906 
z
" transform="scale(0.015625)"/>
      <path id="DejaVuSerif-1a" d="M 3609 4347 
L 1784 0 
L 1319 0 
L 3059 4153 
L 903 4153 
L 903 3578 
L 538 3578 
L 538 4666 
L 3609 4666 
L 3609 4347 
z
" transform="scale(0.015625)"/>
      <path id="DejaVuSerif-50" d="M 3316 2675 
Q 3481 3041 3739 3227 
Q 3997 3413 4341 3413 
Q 4863 3413 5119 3089 
Q 5375 2766 5375 2113 
L 5375 331 
L 5894 331 
L 5894 0 
L 4300 0 
L 4300 331 
L 4800 331 
L 4800 2047 
Q 4800 2556 4650 2772 
Q 4500 2988 4153 2988 
Q 3769 2988 3567 2697 
Q 3366 2406 3366 1850 
L 3366 331 
L 3866 331 
L 3866 0 
L 2291 0 
L 2291 331 
L 2791 331 
L 2791 2069 
Q 2791 2566 2641 2777 
Q 2491 2988 2144 2988 
Q 1759 2988 1557 2697 
Q 1356 2406 1356 1850 
L 1356 331 
L 1856 331 
L 1856 0 
L 263 0 
L 263 331 
L 781 331 
L 781 2994 
L 231 2994 
L 231 3322 
L 1356 3322 
L 1356 2731 
Q 1516 3063 1762 3238 
Q 2009 3413 2322 3413 
Q 2709 3413 2968 3220 
Q 3228 3028 3316 2675 
z
" transform="scale(0.015625)"/>
      <path id="DejaVuSerif-59" d="M 1581 0 
L 359 2988 
L -19 2988 
L -19 3322 
L 1509 3322 
L 1509 2988 
L 978 2988 
L 1913 703 
L 2847 2988 
L 2350 2988 
L 2350 3322 
L 3597 3322 
L 3597 2988 
L 3225 2988 
L 2003 0 
L 1581 0 
z
" transform="scale(0.015625)"/>
     </defs>
     <use xlink:href="#DejaVuSerif-30"/>
     <use xlink:href="#DejaVuSerif-2f" transform="translate(102.390625 0)"/>
     <use xlink:href="#DejaVuSerif-33" transform="translate(168.796875 0)"/>
     <use xlink:href="#DejaVuSerif-3" transform="translate(236.078125 0)"/>
     <use xlink:href="#DejaVuSerif-17" transform="translate(267.859375 0)"/>
     <use xlink:href="#DejaVuSerif-781" transform="translate(331.484375 0)"/>
     <use xlink:href="#DejaVuSerif-1a" transform="translate(381.484375 0)"/>
     <use xlink:href="#DejaVuSerif-3" transform="translate(445.109375 0)"/>
     <use xlink:href="#DejaVuSerif-55" transform="translate(476.890625 0)"/>
     <use xlink:href="#DejaVuSerif-48" transform="translate(524.6875 0)"/>
     <use xlink:href="#DejaVuSerif-50" transform="translate(583.875 0)"/>
     <use xlink:href="#DejaVuSerif-52" transform="translate(678.703125 0)"/>
     <use xlink:href="#DejaVuSerif-59" transform="translate(738.90625 0)"/>
     <use xlink:href="#DejaVuSerif-48" transform="translate(795.40625 0)"/>
     <use xlink:href="#DejaVuSerif-47" transform="translate(854.59375 0)"/>
    </g>
   </g>
   <g id="text_17">
    <!-- 10 -->
    <g transform="translate(428.772958 89.605615) scale(0.074 -0.074)">
     <use xlink:href="#DejaVuSerif-14"/>
     <use xlink:href="#DejaVuSerif-13" transform="translate(63.625 0)"/>
    </g>
   </g>
   <g id="text_18">
    <!-- 3 -->
    <g transform="translate(504.506353 89.605615) scale(0.074 -0.074)">
     <defs>
      <path id="DejaVuSerif-16" d="M 622 4469 
Q 988 4606 1323 4678 
Q 1659 4750 1953 4750 
Q 2638 4750 3022 4454 
Q 3406 4159 3406 3634 
Q 3406 3213 3140 2930 
Q 2875 2647 2388 2547 
Q 2963 2466 3280 2130 
Q 3597 1794 3597 1259 
Q 3597 606 3158 257 
Q 2719 -91 1894 -91 
Q 1528 -91 1179 -12 
Q 831 66 488 225 
L 488 1131 
L 838 1131 
Q 869 681 1141 450 
Q 1413 219 1906 219 
Q 2384 219 2661 495 
Q 2938 772 2938 1253 
Q 2938 1803 2653 2086 
Q 2369 2369 1819 2369 
L 1522 2369 
L 1522 2688 
L 1678 2688 
Q 2225 2688 2498 2914 
Q 2772 3141 2772 3597 
Q 2772 4006 2547 4223 
Q 2322 4441 1900 4441 
Q 1478 4441 1245 4241 
Q 1013 4041 972 3647 
L 622 3647 
L 622 4469 
z
" transform="scale(0.015625)"/>
     </defs>
     <use xlink:href="#DejaVuSerif-16"/>
    </g>
   </g>
   <g id="text_19">
    <!-- 8 -->
    <g transform="translate(566.061479 89.605615) scale(0.074 -0.074)">
     <use xlink:href="#DejaVuSerif-1b"/>
    </g>
   </g>
   <g id="text_20">
    <!-- 0 -->
    <g transform="translate(627.616605 89.605615) scale(0.074 -0.074)">
     <use xlink:href="#DejaVuSerif-13"/>
    </g>
   </g>
   <g id="text_21">
    <!-- 10 -->
    <g transform="translate(693.9335 89.605615) scale(0.074 -0.074)">
     <use xlink:href="#DejaVuSerif-14"/>
     <use xlink:href="#DejaVuSerif-13" transform="translate(63.625 0)"/>
    </g>
   </g>
   <g id="text_22">
    <!-- Unrelated -->
    <g transform="translate(45.45 114.43022) scale(0.074 -0.074)">
     <use xlink:href="#DejaVuSerif-38"/>
     <use xlink:href="#DejaVuSerif-51" transform="translate(84.28125 0)"/>
     <use xlink:href="#DejaVuSerif-55" transform="translate(148.6875 0)"/>
     <use xlink:href="#DejaVuSerif-48" transform="translate(196.484375 0)"/>
     <use xlink:href="#DejaVuSerif-4f" transform="translate(255.671875 0)"/>
     <use xlink:href="#DejaVuSerif-44" transform="translate(287.65625 0)"/>
     <use xlink:href="#DejaVuSerif-57" transform="translate(347.28125 0)"/>
     <use xlink:href="#DejaVuSerif-48" transform="translate(387.46875 0)"/>
     <use xlink:href="#DejaVuSerif-47" transform="translate(446.65625 0)"/>
    </g>
   </g>
   <g id="text_23">
    <!-- Whole adapter removed -->
    <g transform="translate(215.910348 113.713345) scale(0.074 -0.074)">
     <defs>
      <path id="DejaVuSerif-3a" d="M 4878 0 
L 4366 0 
L 3297 3794 
L 2228 0 
L 1716 0 
L 494 4331 
L 31 4331 
L 31 4666 
L 1734 4666 
L 1734 4331 
L 1153 4331 
L 2125 884 
L 3188 4666 
L 3694 4666 
L 4775 844 
L 5753 4331 
L 5216 4331 
L 5216 4666 
L 6559 4666 
L 6559 4331 
L 6100 4331 
L 4878 0 
z
" transform="scale(0.015625)"/>
      <path id="DejaVuSerif-4b" d="M 263 0 
L 263 331 
L 781 331 
L 781 4531 
L 231 4531 
L 231 4863 
L 1356 4863 
L 1356 2731 
Q 1516 3069 1770 3241 
Q 2025 3413 2363 3413 
Q 2913 3413 3172 3097 
Q 3431 2781 3431 2113 
L 3431 331 
L 3944 331 
L 3944 0 
L 2356 0 
L 2356 331 
L 2853 331 
L 2853 1931 
Q 2853 2541 2704 2764 
Q 2556 2988 2175 2988 
Q 1775 2988 1565 2697 
Q 1356 2406 1356 1850 
L 1356 331 
L 1856 331 
L 1856 0 
L 263 0 
z
" transform="scale(0.015625)"/>
     </defs>
     <use xlink:href="#DejaVuSerif-3a"/>
     <use xlink:href="#DejaVuSerif-4b" transform="translate(102.78125 0)"/>
     <use xlink:href="#DejaVuSerif-52" transform="translate(167.1875 0)"/>
     <use xlink:href="#DejaVuSerif-4f" transform="translate(227.390625 0)"/>
     <use xlink:href="#DejaVuSerif-48" transform="translate(259.375 0)"/>
     <use xlink:href="#DejaVuSerif-3" transform="translate(318.5625 0)"/>
     <use xlink:href="#DejaVuSerif-44" transform="translate(350.34375 0)"/>
     <use xlink:href="#DejaVuSerif-47" transform="translate(409.96875 0)"/>
     <use xlink:href="#DejaVuSerif-44" transform="translate(473.984375 0)"/>
     <use xlink:href="#DejaVuSerif-53" transform="translate(533.609375 0)"/>
     <use xlink:href="#DejaVuSerif-57" transform="translate(597.625 0)"/>
     <use xlink:href="#DejaVuSerif-48" transform="translate(637.8125 0)"/>
     <use xlink:href="#DejaVuSerif-55" transform="translate(697 0)"/>
     <use xlink:href="#DejaVuSerif-3" transform="translate(744.796875 0)"/>
     <use xlink:href="#DejaVuSerif-55" transform="translate(776.578125 0)"/>
     <use xlink:href="#DejaVuSerif-48" transform="translate(824.375 0)"/>
     <use xlink:href="#DejaVuSerif-50" transform="translate(883.5625 0)"/>
     <use xlink:href="#DejaVuSerif-52" transform="translate(978.390625 0)"/>
     <use xlink:href="#DejaVuSerif-59" transform="translate(1038.59375 0)"/>
     <use xlink:href="#DejaVuSerif-48" transform="translate(1095.09375 0)"/>
     <use xlink:href="#DejaVuSerif-47" transform="translate(1154.28125 0)"/>
    </g>
   </g>
   <g id="text_24">
    <!-- 10 -->
    <g transform="translate(428.772958 114.364892) scale(0.074 -0.074)">
     <use xlink:href="#DejaVuSerif-14"/>
     <use xlink:href="#DejaVuSerif-13" transform="translate(63.625 0)"/>
    </g>
   </g>
   <g id="text_25">
    <!-- 0 -->
    <g transform="translate(504.506353 114.364892) scale(0.074 -0.074)">
     <use xlink:href="#DejaVuSerif-13"/>
    </g>
   </g>
   <g id="text_26">
    <!-- 7 -->
    <g transform="translate(566.061479 114.368939) scale(0.074 -0.074)">
     <use xlink:href="#DejaVuSerif-1a"/>
    </g>
   </g>
   <g id="text_27">
    <!-- 0 -->
    <g transform="translate(627.616605 114.364892) scale(0.074 -0.074)">
     <use xlink:href="#DejaVuSerif-13"/>
    </g>
   </g>
   <g id="text_28">
    <!-- 10 -->
    <g transform="translate(693.9335 114.364892) scale(0.074 -0.074)">
     <use xlink:href="#DejaVuSerif-14"/>
     <use xlink:href="#DejaVuSerif-13" transform="translate(63.625 0)"/>
    </g>
   </g>
   <g id="text_29">
    <!-- Unrelated -->
    <g transform="translate(45.45 139.189498) scale(0.074 -0.074)">
     <use xlink:href="#DejaVuSerif-38"/>
     <use xlink:href="#DejaVuSerif-51" transform="translate(84.28125 0)"/>
     <use xlink:href="#DejaVuSerif-55" transform="translate(148.6875 0)"/>
     <use xlink:href="#DejaVuSerif-48" transform="translate(196.484375 0)"/>
     <use xlink:href="#DejaVuSerif-4f" transform="translate(255.671875 0)"/>
     <use xlink:href="#DejaVuSerif-44" transform="translate(287.65625 0)"/>
     <use xlink:href="#DejaVuSerif-57" transform="translate(347.28125 0)"/>
     <use xlink:href="#DejaVuSerif-48" transform="translate(387.46875 0)"/>
     <use xlink:href="#DejaVuSerif-47" transform="translate(446.65625 0)"/>
    </g>
   </g>
   <g id="text_30">
    <!-- Focus instruction -->
    <g transform="translate(215.910348 139.100467) scale(0.074 -0.074)">
     <use xlink:href="#DejaVuSerif-29"/>
     <use xlink:href="#DejaVuSerif-52" transform="translate(63.921875 0)"/>
     <use xlink:href="#DejaVuSerif-46" transform="translate(124.125 0)"/>
     <use xlink:href="#DejaVuSerif-58" transform="translate(180.125 0)"/>
     <use xlink:href="#DejaVuSerif-56" transform="translate(244.53125 0)"/>
     <use xlink:href="#DejaVuSerif-3" transform="translate(295.84375 0)"/>
     <use xlink:href="#DejaVuSerif-4c" transform="translate(327.625 0)"/>
     <use xlink:href="#DejaVuSerif-51" transform="translate(359.609375 0)"/>
     <use xlink:href="#DejaVuSerif-56" transform="translate(424.015625 0)"/>
     <use xlink:href="#DejaVuSerif-57" transform="translate(475.328125 0)"/>
     <use xlink:href="#DejaVuSerif-55" transform="translate(515.515625 0)"/>
     <use xlink:href="#DejaVuSerif-58" transform="translate(563.3125 0)"/>
     <use xlink:href="#DejaVuSerif-46" transform="translate(627.71875 0)"/>
     <use xlink:href="#DejaVuSerif-57" transform="translate(683.71875 0)"/>
     <use xlink:href="#DejaVuSerif-4c" transform="translate(723.90625 0)"/>
     <use xlink:href="#DejaVuSerif-52" transform="translate(755.890625 0)"/>
     <use xlink:href="#DejaVuSerif-51" transform="translate(816.09375 0)"/>
    </g>
   </g>
   <g id="text_31">
    <!-- 10 -->
    <g transform="translate(428.772958 139.12417) scale(0.074 -0.074)">
     <use xlink:href="#DejaVuSerif-14"/>
     <use xlink:href="#DejaVuSerif-13" transform="translate(63.625 0)"/>
    </g>
   </g>
   <g id="text_32">
    <!-- 0 -->
    <g transform="translate(504.506353 139.12417) scale(0.074 -0.074)">
     <use xlink:href="#DejaVuSerif-13"/>
    </g>
   </g>
   <g id="text_33">
    <!-- 10 -->
    <g transform="translate(561.353229 139.12417) scale(0.074 -0.074)">
     <use xlink:href="#DejaVuSerif-14"/>
     <use xlink:href="#DejaVuSerif-13" transform="translate(63.625 0)"/>
    </g>
   </g>
   <g id="text_34">
    <!-- 0 -->
    <g transform="translate(627.616605 139.12417) scale(0.074 -0.074)">
     <use xlink:href="#DejaVuSerif-13"/>
    </g>
   </g>
   <g id="text_35">
    <!-- 10 -->
    <g transform="translate(693.9335 139.12417) scale(0.074 -0.074)">
     <use xlink:href="#DejaVuSerif-14"/>
     <use xlink:href="#DejaVuSerif-13" transform="translate(63.625 0)"/>
    </g>
   </g>
   <g id="text_36">
    <!-- Animal, welfare irrelevant -->
    <g transform="translate(45.45 163.49726) scale(0.074 -0.074)">
     <defs>
      <path id="DejaVuSerif-f" d="M 231 -622 
Q 525 -406 662 -114 
Q 800 178 800 594 
L 800 709 
L 1416 709 
Q 1391 175 1164 -208 
Q 938 -591 481 -872 
L 231 -622 
z
" transform="scale(0.015625)"/>
     </defs>
     <use xlink:href="#DejaVuSerif-24"/>
     <use xlink:href="#DejaVuSerif-51" transform="translate(72.21875 0)"/>
     <use xlink:href="#DejaVuSerif-4c" transform="translate(136.625 0)"/>
     <use xlink:href="#DejaVuSerif-50" transform="translate(168.609375 0)"/>
     <use xlink:href="#DejaVuSerif-44" transform="translate(263.4375 0)"/>
     <use xlink:href="#DejaVuSerif-4f" transform="translate(323.0625 0)"/>
     <use xlink:href="#DejaVuSerif-f" transform="translate(355.046875 0)"/>
     <use xlink:href="#DejaVuSerif-3" transform="translate(386.828125 0)"/>
     <use xlink:href="#DejaVuSerif-5a" transform="translate(418.609375 0)"/>
     <use xlink:href="#DejaVuSerif-48" transform="translate(504.203125 0)"/>
     <use xlink:href="#DejaVuSerif-4f" transform="translate(563.390625 0)"/>
     <use xlink:href="#DejaVuSerif-49" transform="translate(595.375 0)"/>
     <use xlink:href="#DejaVuSerif-44" transform="translate(632.390625 0)"/>
     <use xlink:href="#DejaVuSerif-55" transform="translate(692.015625 0)"/>
     <use xlink:href="#DejaVuSerif-48" transform="translate(739.8125 0)"/>
     <use xlink:href="#DejaVuSerif-3" transform="translate(799 0)"/>
     <use xlink:href="#DejaVuSerif-4c" transform="translate(830.78125 0)"/>
     <use xlink:href="#DejaVuSerif-55" transform="translate(862.765625 0)"/>
     <use xlink:href="#DejaVuSerif-55" transform="translate(910.5625 0)"/>
     <use xlink:href="#DejaVuSerif-48" transform="translate(958.359375 0)"/>
     <use xlink:href="#DejaVuSerif-4f" transform="translate(1017.546875 0)"/>
     <use xlink:href="#DejaVuSerif-48" transform="translate(1049.53125 0)"/>
     <use xlink:href="#DejaVuSerif-59" transform="translate(1108.71875 0)"/>
     <use xlink:href="#DejaVuSerif-44" transform="translate(1165.21875 0)"/>
     <use xlink:href="#DejaVuSerif-51" transform="translate(1224.84375 0)"/>
     <use xlink:href="#DejaVuSerif-57" transform="translate(1289.25 0)"/>
    </g>
   </g>
   <g id="text_37">
    <!-- Full rewrite -->
    <g transform="translate(215.910348 163.948776) scale(0.074 -0.074)">
     <use xlink:href="#DejaVuSerif-29"/>
     <use xlink:href="#DejaVuSerif-58" transform="translate(69.390625 0)"/>
     <use xlink:href="#DejaVuSerif-4f" transform="translate(133.796875 0)"/>
     <use xlink:href="#DejaVuSerif-4f" transform="translate(165.78125 0)"/>
     <use xlink:href="#DejaVuSerif-3" transform="translate(197.765625 0)"/>
     <use xlink:href="#DejaVuSerif-55" transform="translate(229.546875 0)"/>
     <use xlink:href="#DejaVuSerif-48" transform="translate(277.34375 0)"/>
     <use xlink:href="#DejaVuSerif-5a" transform="translate(336.53125 0)"/>
     <use xlink:href="#DejaVuSerif-55" transform="translate(422.125 0)"/>
     <use xlink:href="#DejaVuSerif-4c" transform="translate(469.921875 0)"/>
     <use xlink:href="#DejaVuSerif-57" transform="translate(501.90625 0)"/>
     <use xlink:href="#DejaVuSerif-48" transform="translate(542.09375 0)"/>
    </g>
   </g>
   <g id="text_38">
    <!-- 10 -->
    <g transform="translate(428.772958 163.883448) scale(0.074 -0.074)">
     <use xlink:href="#DejaVuSerif-14"/>
     <use xlink:href="#DejaVuSerif-13" transform="translate(63.625 0)"/>
    </g>
   </g>
   <g id="text_39">
    <!-- 9 -->
    <g transform="translate(504.506353 163.883448) scale(0.074 -0.074)">
     <defs>
      <path id="DejaVuSerif-1c" d="M 2994 2091 
Q 2784 1856 2512 1740 
Q 2241 1625 1900 1625 
Q 1206 1625 804 2044 
Q 403 2463 403 3188 
Q 403 3897 839 4323 
Q 1275 4750 2003 4750 
Q 2794 4750 3217 4161 
Q 3641 3572 3641 2478 
Q 3641 1253 3137 581 
Q 2634 -91 1722 -91 
Q 1475 -91 1203 -44 
Q 931 3 647 97 
L 647 872 
L 997 872 
Q 1038 556 1241 387 
Q 1444 219 1784 219 
Q 2391 219 2687 676 
Q 2984 1134 2994 2091 
z
M 1978 4441 
Q 1534 4441 1298 4117 
Q 1063 3794 1063 3188 
Q 1063 2581 1298 2256 
Q 1534 1931 1978 1931 
Q 2422 1931 2658 2245 
Q 2894 2559 2894 3150 
Q 2894 3772 2656 4106 
Q 2419 4441 1978 4441 
z
" transform="scale(0.015625)"/>
     </defs>
     <use xlink:href="#DejaVuSerif-1c"/>
    </g>
   </g>
   <g id="text_40">
    <!-- 1 -->
    <g transform="translate(566.061479 163.936057) scale(0.074 -0.074)">
     <use xlink:href="#DejaVuSerif-14"/>
    </g>
   </g>
   <g id="text_41">
    <!-- 0 -->
    <g transform="translate(627.616605 163.883448) scale(0.074 -0.074)">
     <use xlink:href="#DejaVuSerif-13"/>
    </g>
   </g>
   <g id="text_42">
    <!-- 10 -->
    <g transform="translate(693.9335 163.883448) scale(0.074 -0.074)">
     <use xlink:href="#DejaVuSerif-14"/>
     <use xlink:href="#DejaVuSerif-13" transform="translate(63.625 0)"/>
    </g>
   </g>
   <g id="text_43">
    <!-- Animal, welfare irrelevant -->
    <g transform="translate(45.45 188.256538) scale(0.074 -0.074)">
     <use xlink:href="#DejaVuSerif-24"/>
     <use xlink:href="#DejaVuSerif-51" transform="translate(72.21875 0)"/>
     <use xlink:href="#DejaVuSerif-4c" transform="translate(136.625 0)"/>
     <use xlink:href="#DejaVuSerif-50" transform="translate(168.609375 0)"/>
     <use xlink:href="#DejaVuSerif-44" transform="translate(263.4375 0)"/>
     <use xlink:href="#DejaVuSerif-4f" transform="translate(323.0625 0)"/>
     <use xlink:href="#DejaVuSerif-f" transform="translate(355.046875 0)"/>
     <use xlink:href="#DejaVuSerif-3" transform="translate(386.828125 0)"/>
     <use xlink:href="#DejaVuSerif-5a" transform="translate(418.609375 0)"/>
     <use xlink:href="#DejaVuSerif-48" transform="translate(504.203125 0)"/>
     <use xlink:href="#DejaVuSerif-4f" transform="translate(563.390625 0)"/>
     <use xlink:href="#DejaVuSerif-49" transform="translate(595.375 0)"/>
     <use xlink:href="#DejaVuSerif-44" transform="translate(632.390625 0)"/>
     <use xlink:href="#DejaVuSerif-55" transform="translate(692.015625 0)"/>
     <use xlink:href="#DejaVuSerif-48" transform="translate(739.8125 0)"/>
     <use xlink:href="#DejaVuSerif-3" transform="translate(799 0)"/>
     <use xlink:href="#DejaVuSerif-4c" transform="translate(830.78125 0)"/>
     <use xlink:href="#DejaVuSerif-55" transform="translate(862.765625 0)"/>
     <use xlink:href="#DejaVuSerif-55" transform="translate(910.5625 0)"/>
     <use xlink:href="#DejaVuSerif-48" transform="translate(958.359375 0)"/>
     <use xlink:href="#DejaVuSerif-4f" transform="translate(1017.546875 0)"/>
     <use xlink:href="#DejaVuSerif-48" transform="translate(1049.53125 0)"/>
     <use xlink:href="#DejaVuSerif-59" transform="translate(1108.71875 0)"/>
     <use xlink:href="#DejaVuSerif-44" transform="translate(1165.21875 0)"/>
     <use xlink:href="#DejaVuSerif-51" transform="translate(1224.84375 0)"/>
     <use xlink:href="#DejaVuSerif-57" transform="translate(1289.25 0)"/>
    </g>
   </g>
   <g id="text_44">
    <!-- MLP 4–7 removed -->
    <g transform="translate(215.910348 188.708053) scale(0.074 -0.074)">
     <use xlink:href="#DejaVuSerif-30"/>
     <use xlink:href="#DejaVuSerif-2f" transform="translate(102.390625 0)"/>
     <use xlink:href="#DejaVuSerif-33" transform="translate(168.796875 0)"/>
     <use xlink:href="#DejaVuSerif-3" transform="translate(236.078125 0)"/>
     <use xlink:href="#DejaVuSerif-17" transform="translate(267.859375 0)"/>
     <use xlink:href="#DejaVuSerif-781" transform="translate(331.484375 0)"/>
     <use xlink:href="#DejaVuSerif-1a" transform="translate(381.484375 0)"/>
     <use xlink:href="#DejaVuSerif-3" transform="translate(445.109375 0)"/>
     <use xlink:href="#DejaVuSerif-55" transform="translate(476.890625 0)"/>
     <use xlink:href="#DejaVuSerif-48" transform="translate(524.6875 0)"/>
     <use xlink:href="#DejaVuSerif-50" transform="translate(583.875 0)"/>
     <use xlink:href="#DejaVuSerif-52" transform="translate(678.703125 0)"/>
     <use xlink:href="#DejaVuSerif-59" transform="translate(738.90625 0)"/>
     <use xlink:href="#DejaVuSerif-48" transform="translate(795.40625 0)"/>
     <use xlink:href="#DejaVuSerif-47" transform="translate(854.59375 0)"/>
    </g>
   </g>
   <g id="text_45">
    <!-- 10 -->
    <g transform="translate(428.772958 188.642725) scale(0.074 -0.074)">
     <use xlink:href="#DejaVuSerif-14"/>
     <use xlink:href="#DejaVuSerif-13" transform="translate(63.625 0)"/>
    </g>
   </g>
   <g id="text_46">
    <!-- 8 -->
    <g transform="translate(504.506353 188.642725) scale(0.074 -0.074)">
     <use xlink:href="#DejaVuSerif-1b"/>
    </g>
   </g>
   <g id="text_47">
    <!-- 3 -->
    <g transform="translate(566.061479 188.642725) scale(0.074 -0.074)">
     <use xlink:href="#DejaVuSerif-16"/>
    </g>
   </g>
   <g id="text_48">
    <!-- 0 -->
    <g transform="translate(627.616605 188.642725) scale(0.074 -0.074)">
     <use xlink:href="#DejaVuSerif-13"/>
    </g>
   </g>
   <g id="text_49">
    <!-- 9 -->
    <g transform="translate(698.64175 188.642725) scale(0.074 -0.074)">
     <use xlink:href="#DejaVuSerif-1c"/>
    </g>
   </g>
   <g id="text_50">
    <!-- Animal, welfare irrelevant -->
    <g transform="translate(45.45 213.015815) scale(0.074 -0.074)">
     <use xlink:href="#DejaVuSerif-24"/>
     <use xlink:href="#DejaVuSerif-51" transform="translate(72.21875 0)"/>
     <use xlink:href="#DejaVuSerif-4c" transform="translate(136.625 0)"/>
     <use xlink:href="#DejaVuSerif-50" transform="translate(168.609375 0)"/>
     <use xlink:href="#DejaVuSerif-44" transform="translate(263.4375 0)"/>
     <use xlink:href="#DejaVuSerif-4f" transform="translate(323.0625 0)"/>
     <use xlink:href="#DejaVuSerif-f" transform="translate(355.046875 0)"/>
     <use xlink:href="#DejaVuSerif-3" transform="translate(386.828125 0)"/>
     <use xlink:href="#DejaVuSerif-5a" transform="translate(418.609375 0)"/>
     <use xlink:href="#DejaVuSerif-48" transform="translate(504.203125 0)"/>
     <use xlink:href="#DejaVuSerif-4f" transform="translate(563.390625 0)"/>
     <use xlink:href="#DejaVuSerif-49" transform="translate(595.375 0)"/>
     <use xlink:href="#DejaVuSerif-44" transform="translate(632.390625 0)"/>
     <use xlink:href="#DejaVuSerif-55" transform="translate(692.015625 0)"/>
     <use xlink:href="#DejaVuSerif-48" transform="translate(739.8125 0)"/>
     <use xlink:href="#DejaVuSerif-3" transform="translate(799 0)"/>
     <use xlink:href="#DejaVuSerif-4c" transform="translate(830.78125 0)"/>
     <use xlink:href="#DejaVuSerif-55" transform="translate(862.765625 0)"/>
     <use xlink:href="#DejaVuSerif-55" transform="translate(910.5625 0)"/>
     <use xlink:href="#DejaVuSerif-48" transform="translate(958.359375 0)"/>
     <use xlink:href="#DejaVuSerif-4f" transform="translate(1017.546875 0)"/>
     <use xlink:href="#DejaVuSerif-48" transform="translate(1049.53125 0)"/>
     <use xlink:href="#DejaVuSerif-59" transform="translate(1108.71875 0)"/>
     <use xlink:href="#DejaVuSerif-44" transform="translate(1165.21875 0)"/>
     <use xlink:href="#DejaVuSerif-51" transform="translate(1224.84375 0)"/>
     <use xlink:href="#DejaVuSerif-57" transform="translate(1289.25 0)"/>
    </g>
   </g>
   <g id="text_51">
    <!-- Whole adapter removed -->
    <g transform="translate(215.910348 212.750456) scale(0.074 -0.074)">
     <use xlink:href="#DejaVuSerif-3a"/>
     <use xlink:href="#DejaVuSerif-4b" transform="translate(102.78125 0)"/>
     <use xlink:href="#DejaVuSerif-52" transform="translate(167.1875 0)"/>
     <use xlink:href="#DejaVuSerif-4f" transform="translate(227.390625 0)"/>
     <use xlink:href="#DejaVuSerif-48" transform="translate(259.375 0)"/>
     <use xlink:href="#DejaVuSerif-3" transform="translate(318.5625 0)"/>
     <use xlink:href="#DejaVuSerif-44" transform="translate(350.34375 0)"/>
     <use xlink:href="#DejaVuSerif-47" transform="translate(409.96875 0)"/>
     <use xlink:href="#DejaVuSerif-44" transform="translate(473.984375 0)"/>
     <use xlink:href="#DejaVuSerif-53" transform="translate(533.609375 0)"/>
     <use xlink:href="#DejaVuSerif-57" transform="translate(597.625 0)"/>
     <use xlink:href="#DejaVuSerif-48" transform="translate(637.8125 0)"/>
     <use xlink:href="#DejaVuSerif-55" transform="translate(697 0)"/>
     <use xlink:href="#DejaVuSerif-3" transform="translate(744.796875 0)"/>
     <use xlink:href="#DejaVuSerif-55" transform="translate(776.578125 0)"/>
     <use xlink:href="#DejaVuSerif-48" transform="translate(824.375 0)"/>
     <use xlink:href="#DejaVuSerif-50" transform="translate(883.5625 0)"/>
     <use xlink:href="#DejaVuSerif-52" transform="translate(978.390625 0)"/>
     <use xlink:href="#DejaVuSerif-59" transform="translate(1038.59375 0)"/>
     <use xlink:href="#DejaVuSerif-48" transform="translate(1095.09375 0)"/>
     <use xlink:href="#DejaVuSerif-47" transform="translate(1154.28125 0)"/>
    </g>
   </g>
   <g id="text_52">
    <!-- 10 -->
    <g transform="translate(428.772958 213.402003) scale(0.074 -0.074)">
     <use xlink:href="#DejaVuSerif-14"/>
     <use xlink:href="#DejaVuSerif-13" transform="translate(63.625 0)"/>
    </g>
   </g>
   <g id="text_53">
    <!-- 0 -->
    <g transform="translate(504.506353 213.402003) scale(0.074 -0.074)">
     <use xlink:href="#DejaVuSerif-13"/>
    </g>
   </g>
   <g id="text_54">
    <!-- 1 -->
    <g transform="translate(566.061479 213.454612) scale(0.074 -0.074)">
     <use xlink:href="#DejaVuSerif-14"/>
    </g>
   </g>
   <g id="text_55">
    <!-- 0 -->
    <g transform="translate(627.616605 213.402003) scale(0.074 -0.074)">
     <use xlink:href="#DejaVuSerif-13"/>
    </g>
   </g>
   <g id="text_56">
    <!-- 8 -->
    <g transform="translate(698.64175 213.402003) scale(0.074 -0.074)">
     <use xlink:href="#DejaVuSerif-1b"/>
    </g>
   </g>
   <g id="text_57">
    <!-- Animal, welfare irrelevant -->
    <g transform="translate(45.45 237.775093) scale(0.074 -0.074)">
     <use xlink:href="#DejaVuSerif-24"/>
     <use xlink:href="#DejaVuSerif-51" transform="translate(72.21875 0)"/>
     <use xlink:href="#DejaVuSerif-4c" transform="translate(136.625 0)"/>
     <use xlink:href="#DejaVuSerif-50" transform="translate(168.609375 0)"/>
     <use xlink:href="#DejaVuSerif-44" transform="translate(263.4375 0)"/>
     <use xlink:href="#DejaVuSerif-4f" transform="translate(323.0625 0)"/>
     <use xlink:href="#DejaVuSerif-f" transform="translate(355.046875 0)"/>
     <use xlink:href="#DejaVuSerif-3" transform="translate(386.828125 0)"/>
     <use xlink:href="#DejaVuSerif-5a" transform="translate(418.609375 0)"/>
     <use xlink:href="#DejaVuSerif-48" transform="translate(504.203125 0)"/>
     <use xlink:href="#DejaVuSerif-4f" transform="translate(563.390625 0)"/>
     <use xlink:href="#DejaVuSerif-49" transform="translate(595.375 0)"/>
     <use xlink:href="#DejaVuSerif-44" transform="translate(632.390625 0)"/>
     <use xlink:href="#DejaVuSerif-55" transform="translate(692.015625 0)"/>
     <use xlink:href="#DejaVuSerif-48" transform="translate(739.8125 0)"/>
     <use xlink:href="#DejaVuSerif-3" transform="translate(799 0)"/>
     <use xlink:href="#DejaVuSerif-4c" transform="translate(830.78125 0)"/>
     <use xlink:href="#DejaVuSerif-55" transform="translate(862.765625 0)"/>
     <use xlink:href="#DejaVuSerif-55" transform="translate(910.5625 0)"/>
     <use xlink:href="#DejaVuSerif-48" transform="translate(958.359375 0)"/>
     <use xlink:href="#DejaVuSerif-4f" transform="translate(1017.546875 0)"/>
     <use xlink:href="#DejaVuSerif-48" transform="translate(1049.53125 0)"/>
     <use xlink:href="#DejaVuSerif-59" transform="translate(1108.71875 0)"/>
     <use xlink:href="#DejaVuSerif-44" transform="translate(1165.21875 0)"/>
     <use xlink:href="#DejaVuSerif-51" transform="translate(1224.84375 0)"/>
     <use xlink:href="#DejaVuSerif-57" transform="translate(1289.25 0)"/>
    </g>
   </g>
   <g id="text_58">
    <!-- Focus instruction -->
    <g transform="translate(215.910348 238.137577) scale(0.074 -0.074)">
     <use xlink:href="#DejaVuSerif-29"/>
     <use xlink:href="#DejaVuSerif-52" transform="translate(63.921875 0)"/>
     <use xlink:href="#DejaVuSerif-46" transform="translate(124.125 0)"/>
     <use xlink:href="#DejaVuSerif-58" transform="translate(180.125 0)"/>
     <use xlink:href="#DejaVuSerif-56" transform="translate(244.53125 0)"/>
     <use xlink:href="#DejaVuSerif-3" transform="translate(295.84375 0)"/>
     <use xlink:href="#DejaVuSerif-4c" transform="translate(327.625 0)"/>
     <use xlink:href="#DejaVuSerif-51" transform="translate(359.609375 0)"/>
     <use xlink:href="#DejaVuSerif-56" transform="translate(424.015625 0)"/>
     <use xlink:href="#DejaVuSerif-57" transform="translate(475.328125 0)"/>
     <use xlink:href="#DejaVuSerif-55" transform="translate(515.515625 0)"/>
     <use xlink:href="#DejaVuSerif-58" transform="translate(563.3125 0)"/>
     <use xlink:href="#DejaVuSerif-46" transform="translate(627.71875 0)"/>
     <use xlink:href="#DejaVuSerif-57" transform="translate(683.71875 0)"/>
     <use xlink:href="#DejaVuSerif-4c" transform="translate(723.90625 0)"/>
     <use xlink:href="#DejaVuSerif-52" transform="translate(755.890625 0)"/>
     <use xlink:href="#DejaVuSerif-51" transform="translate(816.09375 0)"/>
    </g>
   </g>
   <g id="text_59">
    <!-- 10 -->
    <g transform="translate(428.772958 238.16128) scale(0.074 -0.074)">
     <use xlink:href="#DejaVuSerif-14"/>
     <use xlink:href="#DejaVuSerif-13" transform="translate(63.625 0)"/>
    </g>
   </g>
   <g id="text_60">
    <!-- 7 -->
    <g transform="translate(504.506353 238.165327) scale(0.074 -0.074)">
     <use xlink:href="#DejaVuSerif-1a"/>
    </g>
   </g>
   <g id="text_61">
    <!-- 4 -->
    <g transform="translate(566.061479 238.21389) scale(0.074 -0.074)">
     <use xlink:href="#DejaVuSerif-17"/>
    </g>
   </g>
   <g id="text_62">
    <!-- 0 -->
    <g transform="translate(627.616605 238.16128) scale(0.074 -0.074)">
     <use xlink:href="#DejaVuSerif-13"/>
    </g>
   </g>
   <g id="text_63">
    <!-- 10 -->
    <g transform="translate(693.9335 238.16128) scale(0.074 -0.074)">
     <use xlink:href="#DejaVuSerif-14"/>
     <use xlink:href="#DejaVuSerif-13" transform="translate(63.625 0)"/>
    </g>
   </g>
   <g id="text_64">
    <!-- Welfare relevant -->
    <g transform="translate(45.45 262.985886) scale(0.074 -0.074)">
     <use xlink:href="#DejaVuSerif-3a"/>
     <use xlink:href="#DejaVuSerif-48" transform="translate(94.625 0)"/>
     <use xlink:href="#DejaVuSerif-4f" transform="translate(153.8125 0)"/>
     <use xlink:href="#DejaVuSerif-49" transform="translate(185.796875 0)"/>
     <use xlink:href="#DejaVuSerif-44" transform="translate(222.8125 0)"/>
     <use xlink:href="#DejaVuSerif-55" transform="translate(282.4375 0)"/>
     <use xlink:href="#DejaVuSerif-48" transform="translate(330.234375 0)"/>
     <use xlink:href="#DejaVuSerif-3" transform="translate(389.421875 0)"/>
     <use xlink:href="#DejaVuSerif-55" transform="translate(421.203125 0)"/>
     <use xlink:href="#DejaVuSerif-48" transform="translate(469 0)"/>
     <use xlink:href="#DejaVuSerif-4f" transform="translate(528.1875 0)"/>
     <use xlink:href="#DejaVuSerif-48" transform="translate(560.171875 0)"/>
     <use xlink:href="#DejaVuSerif-59" transform="translate(619.359375 0)"/>
     <use xlink:href="#DejaVuSerif-44" transform="translate(675.859375 0)"/>
     <use xlink:href="#DejaVuSerif-51" transform="translate(735.484375 0)"/>
     <use xlink:href="#DejaVuSerif-57" transform="translate(799.890625 0)"/>
    </g>
   </g>
   <g id="text_65">
    <!-- Full rewrite -->
    <g transform="translate(215.910348 262.985886) scale(0.074 -0.074)">
     <use xlink:href="#DejaVuSerif-29"/>
     <use xlink:href="#DejaVuSerif-58" transform="translate(69.390625 0)"/>
     <use xlink:href="#DejaVuSerif-4f" transform="translate(133.796875 0)"/>
     <use xlink:href="#DejaVuSerif-4f" transform="translate(165.78125 0)"/>
     <use xlink:href="#DejaVuSerif-3" transform="translate(197.765625 0)"/>
     <use xlink:href="#DejaVuSerif-55" transform="translate(229.546875 0)"/>
     <use xlink:href="#DejaVuSerif-48" transform="translate(277.34375 0)"/>
     <use xlink:href="#DejaVuSerif-5a" transform="translate(336.53125 0)"/>
     <use xlink:href="#DejaVuSerif-55" transform="translate(422.125 0)"/>
     <use xlink:href="#DejaVuSerif-4c" transform="translate(469.921875 0)"/>
     <use xlink:href="#DejaVuSerif-57" transform="translate(501.90625 0)"/>
     <use xlink:href="#DejaVuSerif-48" transform="translate(542.09375 0)"/>
    </g>
   </g>
   <g id="text_66">
    <!-- 10 -->
    <g transform="translate(428.772958 262.920558) scale(0.074 -0.074)">
     <use xlink:href="#DejaVuSerif-14"/>
     <use xlink:href="#DejaVuSerif-13" transform="translate(63.625 0)"/>
    </g>
   </g>
   <g id="text_67">
    <!-- 0 -->
    <g transform="translate(504.506353 262.920558) scale(0.074 -0.074)">
     <use xlink:href="#DejaVuSerif-13"/>
    </g>
   </g>
   <g id="text_68">
    <!-- 3 -->
    <g transform="translate(566.061479 262.920558) scale(0.074 -0.074)">
     <use xlink:href="#DejaVuSerif-16"/>
    </g>
   </g>
   <g id="text_69">
    <!-- 10 -->
    <g transform="translate(622.908355 262.920558) scale(0.074 -0.074)">
     <use xlink:href="#DejaVuSerif-14"/>
     <use xlink:href="#DejaVuSerif-13" transform="translate(63.625 0)"/>
    </g>
   </g>
   <g id="text_70">
    <!-- 10 -->
    <g transform="translate(693.9335 262.920558) scale(0.074 -0.074)">
     <use xlink:href="#DejaVuSerif-14"/>
     <use xlink:href="#DejaVuSerif-13" transform="translate(63.625 0)"/>
    </g>
   </g>
   <g id="text_71">
    <!-- Welfare relevant -->
    <g transform="translate(45.45 287.745164) scale(0.074 -0.074)">
     <use xlink:href="#DejaVuSerif-3a"/>
     <use xlink:href="#DejaVuSerif-48" transform="translate(94.625 0)"/>
     <use xlink:href="#DejaVuSerif-4f" transform="translate(153.8125 0)"/>
     <use xlink:href="#DejaVuSerif-49" transform="translate(185.796875 0)"/>
     <use xlink:href="#DejaVuSerif-44" transform="translate(222.8125 0)"/>
     <use xlink:href="#DejaVuSerif-55" transform="translate(282.4375 0)"/>
     <use xlink:href="#DejaVuSerif-48" transform="translate(330.234375 0)"/>
     <use xlink:href="#DejaVuSerif-3" transform="translate(389.421875 0)"/>
     <use xlink:href="#DejaVuSerif-55" transform="translate(421.203125 0)"/>
     <use xlink:href="#DejaVuSerif-48" transform="translate(469 0)"/>
     <use xlink:href="#DejaVuSerif-4f" transform="translate(528.1875 0)"/>
     <use xlink:href="#DejaVuSerif-48" transform="translate(560.171875 0)"/>
     <use xlink:href="#DejaVuSerif-59" transform="translate(619.359375 0)"/>
     <use xlink:href="#DejaVuSerif-44" transform="translate(675.859375 0)"/>
     <use xlink:href="#DejaVuSerif-51" transform="translate(735.484375 0)"/>
     <use xlink:href="#DejaVuSerif-57" transform="translate(799.890625 0)"/>
    </g>
   </g>
   <g id="text_72">
    <!-- MLP 4–7 removed -->
    <g transform="translate(215.910348 287.745164) scale(0.074 -0.074)">
     <use xlink:href="#DejaVuSerif-30"/>
     <use xlink:href="#DejaVuSerif-2f" transform="translate(102.390625 0)"/>
     <use xlink:href="#DejaVuSerif-33" transform="translate(168.796875 0)"/>
     <use xlink:href="#DejaVuSerif-3" transform="translate(236.078125 0)"/>
     <use xlink:href="#DejaVuSerif-17" transform="translate(267.859375 0)"/>
     <use xlink:href="#DejaVuSerif-781" transform="translate(331.484375 0)"/>
     <use xlink:href="#DejaVuSerif-1a" transform="translate(381.484375 0)"/>
     <use xlink:href="#DejaVuSerif-3" transform="translate(445.109375 0)"/>
     <use xlink:href="#DejaVuSerif-55" transform="translate(476.890625 0)"/>
     <use xlink:href="#DejaVuSerif-48" transform="translate(524.6875 0)"/>
     <use xlink:href="#DejaVuSerif-50" transform="translate(583.875 0)"/>
     <use xlink:href="#DejaVuSerif-52" transform="translate(678.703125 0)"/>
     <use xlink:href="#DejaVuSerif-59" transform="translate(738.90625 0)"/>
     <use xlink:href="#DejaVuSerif-48" transform="translate(795.40625 0)"/>
     <use xlink:href="#DejaVuSerif-47" transform="translate(854.59375 0)"/>
    </g>
   </g>
   <g id="text_73">
    <!-- 10 -->
    <g transform="translate(428.772958 287.679836) scale(0.074 -0.074)">
     <use xlink:href="#DejaVuSerif-14"/>
     <use xlink:href="#DejaVuSerif-13" transform="translate(63.625 0)"/>
    </g>
   </g>
   <g id="text_74">
    <!-- 0 -->
    <g transform="translate(504.506353 287.679836) scale(0.074 -0.074)">
     <use xlink:href="#DejaVuSerif-13"/>
    </g>
   </g>
   <g id="text_75">
    <!-- 3 -->
    <g transform="translate(566.061479 287.679836) scale(0.074 -0.074)">
     <use xlink:href="#DejaVuSerif-16"/>
    </g>
   </g>
   <g id="text_76">
    <!-- 10 -->
    <g transform="translate(622.908355 287.679836) scale(0.074 -0.074)">
     <use xlink:href="#DejaVuSerif-14"/>
     <use xlink:href="#DejaVuSerif-13" transform="translate(63.625 0)"/>
    </g>
   </g>
   <g id="text_77">
    <!-- 9 -->
    <g transform="translate(698.64175 287.679836) scale(0.074 -0.074)">
     <use xlink:href="#DejaVuSerif-1c"/>
    </g>
   </g>
   <g id="text_78">
    <!-- Welfare relevant -->
    <g transform="translate(45.45 312.504441) scale(0.074 -0.074)">
     <use xlink:href="#DejaVuSerif-3a"/>
     <use xlink:href="#DejaVuSerif-48" transform="translate(94.625 0)"/>
     <use xlink:href="#DejaVuSerif-4f" transform="translate(153.8125 0)"/>
     <use xlink:href="#DejaVuSerif-49" transform="translate(185.796875 0)"/>
     <use xlink:href="#DejaVuSerif-44" transform="translate(222.8125 0)"/>
     <use xlink:href="#DejaVuSerif-55" transform="translate(282.4375 0)"/>
     <use xlink:href="#DejaVuSerif-48" transform="translate(330.234375 0)"/>
     <use xlink:href="#DejaVuSerif-3" transform="translate(389.421875 0)"/>
     <use xlink:href="#DejaVuSerif-55" transform="translate(421.203125 0)"/>
     <use xlink:href="#DejaVuSerif-48" transform="translate(469 0)"/>
     <use xlink:href="#DejaVuSerif-4f" transform="translate(528.1875 0)"/>
     <use xlink:href="#DejaVuSerif-48" transform="translate(560.171875 0)"/>
     <use xlink:href="#DejaVuSerif-59" transform="translate(619.359375 0)"/>
     <use xlink:href="#DejaVuSerif-44" transform="translate(675.859375 0)"/>
     <use xlink:href="#DejaVuSerif-51" transform="translate(735.484375 0)"/>
     <use xlink:href="#DejaVuSerif-57" transform="translate(799.890625 0)"/>
    </g>
   </g>
   <g id="text_79">
    <!-- Whole adapter removed -->
    <g transform="translate(215.910348 311.787566) scale(0.074 -0.074)">
     <use xlink:href="#DejaVuSerif-3a"/>
     <use xlink:href="#DejaVuSerif-4b" transform="translate(102.78125 0)"/>
     <use xlink:href="#DejaVuSerif-52" transform="translate(167.1875 0)"/>
     <use xlink:href="#DejaVuSerif-4f" transform="translate(227.390625 0)"/>
     <use xlink:href="#DejaVuSerif-48" transform="translate(259.375 0)"/>
     <use xlink:href="#DejaVuSerif-3" transform="translate(318.5625 0)"/>
     <use xlink:href="#DejaVuSerif-44" transform="translate(350.34375 0)"/>
     <use xlink:href="#DejaVuSerif-47" transform="translate(409.96875 0)"/>
     <use xlink:href="#DejaVuSerif-44" transform="translate(473.984375 0)"/>
     <use xlink:href="#DejaVuSerif-53" transform="translate(533.609375 0)"/>
     <use xlink:href="#DejaVuSerif-57" transform="translate(597.625 0)"/>
     <use xlink:href="#DejaVuSerif-48" transform="translate(637.8125 0)"/>
     <use xlink:href="#DejaVuSerif-55" transform="translate(697 0)"/>
     <use xlink:href="#DejaVuSerif-3" transform="translate(744.796875 0)"/>
     <use xlink:href="#DejaVuSerif-55" transform="translate(776.578125 0)"/>
     <use xlink:href="#DejaVuSerif-48" transform="translate(824.375 0)"/>
     <use xlink:href="#DejaVuSerif-50" transform="translate(883.5625 0)"/>
     <use xlink:href="#DejaVuSerif-52" transform="translate(978.390625 0)"/>
     <use xlink:href="#DejaVuSerif-59" transform="translate(1038.59375 0)"/>
     <use xlink:href="#DejaVuSerif-48" transform="translate(1095.09375 0)"/>
     <use xlink:href="#DejaVuSerif-47" transform="translate(1154.28125 0)"/>
    </g>
   </g>
   <g id="text_80">
    <!-- 10 -->
    <g transform="translate(428.772958 312.439113) scale(0.074 -0.074)">
     <use xlink:href="#DejaVuSerif-14"/>
     <use xlink:href="#DejaVuSerif-13" transform="translate(63.625 0)"/>
    </g>
   </g>
   <g id="text_81">
    <!-- 0 -->
    <g transform="translate(504.506353 312.439113) scale(0.074 -0.074)">
     <use xlink:href="#DejaVuSerif-13"/>
    </g>
   </g>
   <g id="text_82">
    <!-- 0 -->
    <g transform="translate(566.061479 312.439113) scale(0.074 -0.074)">
     <use xlink:href="#DejaVuSerif-13"/>
    </g>
   </g>
   <g id="text_83">
    <!-- 10 -->
    <g transform="translate(622.908355 312.439113) scale(0.074 -0.074)">
     <use xlink:href="#DejaVuSerif-14"/>
     <use xlink:href="#DejaVuSerif-13" transform="translate(63.625 0)"/>
    </g>
   </g>
   <g id="text_84">
    <!-- 3 -->
    <g transform="translate(698.64175 312.439113) scale(0.074 -0.074)">
     <use xlink:href="#DejaVuSerif-16"/>
    </g>
   </g>
   <g id="text_85">
    <!-- Welfare relevant -->
    <g transform="translate(45.45 337.263719) scale(0.074 -0.074)">
     <use xlink:href="#DejaVuSerif-3a"/>
     <use xlink:href="#DejaVuSerif-48" transform="translate(94.625 0)"/>
     <use xlink:href="#DejaVuSerif-4f" transform="translate(153.8125 0)"/>
     <use xlink:href="#DejaVuSerif-49" transform="translate(185.796875 0)"/>
     <use xlink:href="#DejaVuSerif-44" transform="translate(222.8125 0)"/>
     <use xlink:href="#DejaVuSerif-55" transform="translate(282.4375 0)"/>
     <use xlink:href="#DejaVuSerif-48" transform="translate(330.234375 0)"/>
     <use xlink:href="#DejaVuSerif-3" transform="translate(389.421875 0)"/>
     <use xlink:href="#DejaVuSerif-55" transform="translate(421.203125 0)"/>
     <use xlink:href="#DejaVuSerif-48" transform="translate(469 0)"/>
     <use xlink:href="#DejaVuSerif-4f" transform="translate(528.1875 0)"/>
     <use xlink:href="#DejaVuSerif-48" transform="translate(560.171875 0)"/>
     <use xlink:href="#DejaVuSerif-59" transform="translate(619.359375 0)"/>
     <use xlink:href="#DejaVuSerif-44" transform="translate(675.859375 0)"/>
     <use xlink:href="#DejaVuSerif-51" transform="translate(735.484375 0)"/>
     <use xlink:href="#DejaVuSerif-57" transform="translate(799.890625 0)"/>
    </g>
   </g>
   <g id="text_86">
    <!-- Focus instruction -->
    <g transform="translate(215.910348 337.174688) scale(0.074 -0.074)">
     <use xlink:href="#DejaVuSerif-29"/>
     <use xlink:href="#DejaVuSerif-52" transform="translate(63.921875 0)"/>
     <use xlink:href="#DejaVuSerif-46" transform="translate(124.125 0)"/>
     <use xlink:href="#DejaVuSerif-58" transform="translate(180.125 0)"/>
     <use xlink:href="#DejaVuSerif-56" transform="translate(244.53125 0)"/>
     <use xlink:href="#DejaVuSerif-3" transform="translate(295.84375 0)"/>
     <use xlink:href="#DejaVuSerif-4c" transform="translate(327.625 0)"/>
     <use xlink:href="#DejaVuSerif-51" transform="translate(359.609375 0)"/>
     <use xlink:href="#DejaVuSerif-56" transform="translate(424.015625 0)"/>
     <use xlink:href="#DejaVuSerif-57" transform="translate(475.328125 0)"/>
     <use xlink:href="#DejaVuSerif-55" transform="translate(515.515625 0)"/>
     <use xlink:href="#DejaVuSerif-58" transform="translate(563.3125 0)"/>
     <use xlink:href="#DejaVuSerif-46" transform="translate(627.71875 0)"/>
     <use xlink:href="#DejaVuSerif-57" transform="translate(683.71875 0)"/>
     <use xlink:href="#DejaVuSerif-4c" transform="translate(723.90625 0)"/>
     <use xlink:href="#DejaVuSerif-52" transform="translate(755.890625 0)"/>
     <use xlink:href="#DejaVuSerif-51" transform="translate(816.09375 0)"/>
    </g>
   </g>
   <g id="text_87">
    <!-- 10 -->
    <g transform="translate(428.772958 337.198391) scale(0.074 -0.074)">
     <use xlink:href="#DejaVuSerif-14"/>
     <use xlink:href="#DejaVuSerif-13" transform="translate(63.625 0)"/>
    </g>
   </g>
   <g id="text_88">
    <!-- 0 -->
    <g transform="translate(504.506353 337.198391) scale(0.074 -0.074)">
     <use xlink:href="#DejaVuSerif-13"/>
    </g>
   </g>
   <g id="text_89">
    <!-- 5 -->
    <g transform="translate(566.061479 337.149829) scale(0.074 -0.074)">
     <use xlink:href="#DejaVuSerif-18"/>
    </g>
   </g>
   <g id="text_90">
    <!-- 10 -->
    <g transform="translate(622.908355 337.198391) scale(0.074 -0.074)">
     <use xlink:href="#DejaVuSerif-14"/>
     <use xlink:href="#DejaVuSerif-13" transform="translate(63.625 0)"/>
    </g>
   </g>
   <g id="text_91">
    <!-- 10 -->
    <g transform="translate(693.9335 337.198391) scale(0.074 -0.074)">
     <use xlink:href="#DejaVuSerif-14"/>
     <use xlink:href="#DejaVuSerif-13" transform="translate(63.625 0)"/>
    </g>
   </g>
   <g id="text_92">
    <!-- Table A4: Results for 30 held-out questions under four conditions. -->
    <g transform="translate(252.264156 389.591233) scale(0.073 -0.073)">
     <defs>
      <path id="DejaVuSerif-37" d="M 1222 0 
L 1222 331 
L 1819 331 
L 1819 4294 
L 447 4294 
L 447 3566 
L 63 3566 
L 63 4666 
L 4206 4666 
L 4206 3566 
L 3822 3566 
L 3822 4294 
L 2450 4294 
L 2450 331 
L 3047 331 
L 3047 0 
L 1222 0 
z
" transform="scale(0.015625)"/>
      <path id="DejaVuSerif-1d" d="M 666 325 
Q 666 500 786 622 
Q 906 744 1081 744 
Q 1256 744 1376 622 
Q 1497 500 1497 325 
Q 1497 150 1378 29 
Q 1259 -91 1081 -91 
Q 903 -91 784 29 
Q 666 150 666 325 
z
M 666 2363 
Q 666 2538 786 2658 
Q 906 2778 1081 2778 
Q 1259 2778 1378 2659 
Q 1497 2541 1497 2363 
Q 1497 2184 1378 2065 
Q 1259 1947 1081 1947 
Q 906 1947 786 2067 
Q 666 2188 666 2363 
z
" transform="scale(0.015625)"/>
      <path id="DejaVuSerif-10" d="M 281 1959 
L 1881 1959 
L 1881 1472 
L 281 1472 
L 281 1959 
z
" transform="scale(0.015625)"/>
      <path id="DejaVuSerif-54" d="M 3359 2988 
L 3359 -997 
L 3909 -997 
L 3909 -1331 
L 2241 -1331 
L 2241 -997 
L 2784 -997 
L 2784 519 
Q 2616 206 2355 57 
Q 2094 -91 1709 -91 
Q 1097 -91 708 395 
Q 319 881 319 1663 
Q 319 2444 706 2928 
Q 1094 3413 1709 3413 
Q 2094 3413 2355 3264 
Q 2616 3116 2784 2803 
L 2784 3322 
L 3909 3322 
L 3909 2988 
L 3359 2988 
z
M 2784 1825 
Q 2784 2422 2554 2737 
Q 2325 3053 1888 3053 
Q 1444 3053 1217 2703 
Q 991 2353 991 1663 
Q 991 975 1217 622 
Q 1444 269 1888 269 
Q 2325 269 2554 583 
Q 2784 897 2784 1497 
L 2784 1825 
z
" transform="scale(0.015625)"/>
      <path id="DejaVuSerif-11" d="M 603 325 
Q 603 500 722 622 
Q 841 744 1019 744 
Q 1191 744 1312 622 
Q 1434 500 1434 325 
Q 1434 153 1312 31 
Q 1191 -91 1019 -91 
Q 841 -91 722 29 
Q 603 150 603 325 
z
" transform="scale(0.015625)"/>
     </defs>
     <use xlink:href="#DejaVuSerif-37"/>
     <use xlink:href="#DejaVuSerif-44" transform="translate(58.9375 0)"/>
     <use xlink:href="#DejaVuSerif-45" transform="translate(118.5625 0)"/>
     <use xlink:href="#DejaVuSerif-4f" transform="translate(182.578125 0)"/>
     <use xlink:href="#DejaVuSerif-48" transform="translate(214.5625 0)"/>
     <use xlink:href="#DejaVuSerif-3" transform="translate(273.75 0)"/>
     <use xlink:href="#DejaVuSerif-24" transform="translate(305.53125 0)"/>
     <use xlink:href="#DejaVuSerif-17" transform="translate(377.75 0)"/>
     <use xlink:href="#DejaVuSerif-1d" transform="translate(441.375 0)"/>
     <use xlink:href="#DejaVuSerif-3" transform="translate(475.0625 0)"/>
     <use xlink:href="#DejaVuSerif-35" transform="translate(506.84375 0)"/>
     <use xlink:href="#DejaVuSerif-48" transform="translate(582.140625 0)"/>
     <use xlink:href="#DejaVuSerif-56" transform="translate(641.328125 0)"/>
     <use xlink:href="#DejaVuSerif-58" transform="translate(692.640625 0)"/>
     <use xlink:href="#DejaVuSerif-4f" transform="translate(757.046875 0)"/>
     <use xlink:href="#DejaVuSerif-57" transform="translate(789.03125 0)"/>
     <use xlink:href="#DejaVuSerif-56" transform="translate(829.21875 0)"/>
     <use xlink:href="#DejaVuSerif-3" transform="translate(880.53125 0)"/>
     <use xlink:href="#DejaVuSerif-49" transform="translate(912.3125 0)"/>
     <use xlink:href="#DejaVuSerif-52" transform="translate(949.328125 0)"/>
     <use xlink:href="#DejaVuSerif-55" transform="translate(1009.53125 0)"/>
     <use xlink:href="#DejaVuSerif-3" transform="translate(1057.328125 0)"/>
     <use xlink:href="#DejaVuSerif-16" transform="translate(1089.109375 0)"/>
     <use xlink:href="#DejaVuSerif-13" transform="translate(1152.734375 0)"/>
     <use xlink:href="#DejaVuSerif-3" transform="translate(1216.359375 0)"/>
     <use xlink:href="#DejaVuSerif-4b" transform="translate(1248.140625 0)"/>
     <use xlink:href="#DejaVuSerif-48" transform="translate(1312.546875 0)"/>
     <use xlink:href="#DejaVuSerif-4f" transform="translate(1371.734375 0)"/>
     <use xlink:href="#DejaVuSerif-47" transform="translate(1403.71875 0)"/>
     <use xlink:href="#DejaVuSerif-10" transform="translate(1467.734375 0)"/>
     <use xlink:href="#DejaVuSerif-52" transform="translate(1501.53125 0)"/>
     <use xlink:href="#DejaVuSerif-58" transform="translate(1561.734375 0)"/>
     <use xlink:href="#DejaVuSerif-57" transform="translate(1626.140625 0)"/>
     <use xlink:href="#DejaVuSerif-3" transform="translate(1666.328125 0)"/>
     <use xlink:href="#DejaVuSerif-54" transform="translate(1698.109375 0)"/>
     <use xlink:href="#DejaVuSerif-58" transform="translate(1762.125 0)"/>
     <use xlink:href="#DejaVuSerif-48" transform="translate(1826.53125 0)"/>
     <use xlink:href="#DejaVuSerif-56" transform="translate(1885.71875 0)"/>
     <use xlink:href="#DejaVuSerif-57" transform="translate(1937.03125 0)"/>
     <use xlink:href="#DejaVuSerif-4c" transform="translate(1977.21875 0)"/>
     <use xlink:href="#DejaVuSerif-52" transform="translate(2009.203125 0)"/>
     <use xlink:href="#DejaVuSerif-51" transform="translate(2069.40625 0)"/>
     <use xlink:href="#DejaVuSerif-56" transform="translate(2133.8125 0)"/>
     <use xlink:href="#DejaVuSerif-3" transform="translate(2185.125 0)"/>
     <use xlink:href="#DejaVuSerif-58" transform="translate(2216.90625 0)"/>
     <use xlink:href="#DejaVuSerif-51" transform="translate(2281.3125 0)"/>
     <use xlink:href="#DejaVuSerif-47" transform="translate(2345.71875 0)"/>
     <use xlink:href="#DejaVuSerif-48" transform="translate(2409.734375 0)"/>
     <use xlink:href="#DejaVuSerif-55" transform="translate(2468.921875 0)"/>
     <use xlink:href="#DejaVuSerif-3" transform="translate(2516.71875 0)"/>
     <use xlink:href="#DejaVuSerif-49" transform="translate(2548.5 0)"/>
     <use xlink:href="#DejaVuSerif-52" transform="translate(2585.515625 0)"/>
     <use xlink:href="#DejaVuSerif-58" transform="translate(2645.71875 0)"/>
     <use xlink:href="#DejaVuSerif-55" transform="translate(2710.125 0)"/>
     <use xlink:href="#DejaVuSerif-3" transform="translate(2757.921875 0)"/>
     <use xlink:href="#DejaVuSerif-46" transform="translate(2789.703125 0)"/>
     <use xlink:href="#DejaVuSerif-52" transform="translate(2845.703125 0)"/>
     <use xlink:href="#DejaVuSerif-51" transform="translate(2905.90625 0)"/>
     <use xlink:href="#DejaVuSerif-47" transform="translate(2970.3125 0)"/>
     <use xlink:href="#DejaVuSerif-4c" transform="translate(3034.328125 0)"/>
     <use xlink:href="#DejaVuSerif-57" transform="translate(3066.3125 0)"/>
     <use xlink:href="#DejaVuSerif-4c" transform="translate(3106.5 0)"/>
     <use xlink:href="#DejaVuSerif-52" transform="translate(3138.484375 0)"/>
     <use xlink:href="#DejaVuSerif-51" transform="translate(3198.6875 0)"/>
     <use xlink:href="#DejaVuSerif-56" transform="translate(3263.09375 0)"/>
     <use xlink:href="#DejaVuSerif-11" transform="translate(3314.40625 0)"/>
    </g>
   </g>
  </g>
 </g>
 <defs>
  <clipPath id="p53cc0f7dad">
   <rect x="7.2" y="7.2" width="734.4" height="355.86"/>
  </clipPath>
 </defs>
</svg>
